<svg width="151" height="120" viewBox="0 0 151 120" fill="none" xmlns="http://www.w3.org/2000/svg">
<circle cx="75.3488" cy="44.3488" r="73.8488" fill="white" stroke="#282D26" stroke-width="3"/>
<path d="M30.9189 56.9359V65.7941C30.9189 66.0845 30.8036 66.363 30.5982 66.5684C30.3928 66.7737 30.1143 66.8891 29.8239 66.8891C29.5335 66.8891 29.2549 66.7737 29.0496 66.5684C28.8442 66.363 28.7289 66.0845 28.7289 65.7941V56.9359C28.7289 56.6455 28.8442 56.367 29.0496 56.1616C29.2549 55.9563 29.5335 55.8409 29.8239 55.8409C30.1143 55.8409 30.3928 55.9563 30.5982 56.1616C30.8036 56.367 30.9189 56.6455 30.9189 56.9359V56.9359ZM37.6215 65.8765C37.6172 66.1479 37.5086 66.4072 37.3183 66.6007C37.128 66.7942 36.8706 66.9071 36.5993 66.9159C36.4287 66.91 36.2615 66.8661 36.1099 66.7875C35.9583 66.7088 35.8261 66.5975 35.7229 66.4614L31.6496 61.7706C31.47 61.5694 31.3669 61.3114 31.3581 61.0419C31.369 60.7785 31.4793 60.529 31.6669 60.3438L35.5273 56.1727C35.6263 56.0592 35.7487 55.9686 35.8861 55.907C36.0235 55.8454 36.1726 55.8144 36.3232 55.816C36.5904 55.8205 36.845 55.9305 37.0314 56.122C37.2179 56.3135 37.321 56.5709 37.3185 56.8381C37.3157 56.9754 37.2856 57.1106 37.2299 57.2361C37.1743 57.3615 37.0942 57.4746 36.9944 57.5688L33.7591 61.0572L37.3453 65.2111C37.5172 65.3906 37.6158 65.628 37.6215 65.8765V65.8765Z" fill="#282D26"/>
<path d="M49.4386 61.364C49.4386 64.465 46.9226 66.9159 43.7276 66.9159C40.5326 66.9159 38.0472 64.4803 38.0472 61.364C38.0472 58.2476 40.5403 55.8159 43.7276 55.8159C46.9149 55.8159 49.4386 58.2668 49.4386 61.364ZM40.3044 61.364C40.3044 63.4256 41.7312 64.885 43.7429 64.885C45.7546 64.885 47.1834 63.4102 47.1834 61.364C47.1834 59.3177 45.7393 57.843 43.7429 57.843C41.7465 57.843 40.3044 59.3043 40.3044 61.364Z" fill="#282D26"/>
<path d="M51.2797 65.7941V57.1297C51.2746 56.9814 51.3001 56.8336 51.3546 56.6955C51.4091 56.5574 51.4914 56.432 51.5965 56.3271C51.7016 56.2222 51.8271 56.1401 51.9653 56.0858C52.1034 56.0316 52.2513 56.0063 52.3997 56.0117H55.3204C57.6083 56.0117 59.1655 57.4059 59.1655 59.4636C59.1655 61.5214 57.5757 62.9367 55.3204 62.9367H53.4698V65.7941C53.4698 66.0846 53.3544 66.3631 53.149 66.5685C52.9437 66.7738 52.6652 66.8892 52.3747 66.8892C52.0843 66.8892 51.8058 66.7738 51.6004 66.5685C51.3951 66.3631 51.2797 66.0846 51.2797 65.7941V65.7941ZM55.307 61.0247C56.3138 61.0247 56.9294 60.4244 56.9294 59.4675C56.9294 58.5412 56.3138 57.9333 55.307 57.9333H53.4736V61.0189L55.307 61.0247Z" fill="#282D26"/>
<path d="M60.9069 65.7941V57.1297C60.9018 56.9814 60.9273 56.8336 60.9818 56.6955C61.0363 56.5574 61.1186 56.432 61.2237 56.3271C61.3287 56.2222 61.4543 56.1401 61.5924 56.0858C61.7306 56.0316 61.8785 56.0063 62.0268 56.0117H64.9456C67.2354 56.0117 68.7927 57.4059 68.7927 59.4636C68.7927 61.5214 67.2009 62.9367 64.9456 62.9367H63.0969V65.7941C63.0969 66.0846 62.9816 66.3631 62.7762 66.5685C62.5708 66.7738 62.2923 66.8892 62.0019 66.8892C61.7115 66.8892 61.4329 66.7738 61.2276 66.5685C61.0222 66.3631 60.9069 66.0846 60.9069 65.7941V65.7941ZM64.9341 61.0189C65.941 61.0189 66.5566 60.4187 66.5566 59.4617C66.5566 58.5355 65.941 57.9275 64.9341 57.9275H63.1008V61.0189H64.9341Z" fill="#282D26"/>
<path d="M70.5339 65.633V57.0971C70.5313 56.9536 70.5577 56.8112 70.6114 56.6782C70.6652 56.5452 70.7452 56.4244 70.8467 56.3231C70.9482 56.2217 71.0692 56.1419 71.2023 56.0884C71.3354 56.0349 71.4779 56.0088 71.6213 56.0116H76.8625C76.9949 56.0052 77.1271 56.0263 77.2509 56.0735C77.3748 56.1208 77.4874 56.1932 77.5819 56.2861C77.6763 56.3791 77.7504 56.4907 77.7996 56.6137C77.8487 56.7368 77.8718 56.8687 77.8674 57.0012C77.8677 57.1325 77.8418 57.2626 77.7912 57.3838C77.7406 57.505 77.6663 57.6148 77.5728 57.707C77.4792 57.7991 77.3682 57.8717 77.2462 57.9204C77.1243 57.9691 76.9938 57.993 76.8625 57.9907H72.724V60.1655H75.5642C75.6903 60.1598 75.8162 60.1797 75.9344 60.224C76.0526 60.2683 76.1605 60.3361 76.2518 60.4233C76.343 60.5105 76.4156 60.6153 76.4653 60.7313C76.5149 60.8474 76.5405 60.9723 76.5405 61.0985C76.5405 61.2247 76.5149 61.3496 76.4653 61.4656C76.4156 61.5817 76.343 61.6865 76.2518 61.7737C76.1605 61.8609 76.0526 61.9287 75.9344 61.973C75.8162 62.0173 75.6903 62.0372 75.5642 62.0315H72.724V64.7412H77.0562C77.3187 64.7412 77.5703 64.8455 77.7559 65.0311C77.9415 65.2167 78.0458 65.4684 78.0458 65.7308C78.0458 65.9933 77.9415 66.2449 77.7559 66.4305C77.5703 66.6161 77.3187 66.7204 77.0562 66.7204H71.6213C71.4778 66.723 71.3352 66.6966 71.2021 66.6429C71.069 66.5892 70.9481 66.5092 70.8466 66.4077C70.7451 66.3062 70.6651 66.1853 70.6114 66.0522C70.5577 65.9191 70.5313 65.7765 70.5339 65.633V65.633Z" fill="#282D26"/>
<path d="M82.0271 56.936V65.7941C82.0333 65.9419 82.0095 66.0894 81.9572 66.2278C81.9049 66.3662 81.8252 66.4925 81.7228 66.5993C81.6205 66.706 81.4975 66.791 81.3615 66.849C81.2254 66.907 81.079 66.9369 80.9311 66.9369C80.7832 66.9369 80.6368 66.907 80.5008 66.849C80.3647 66.791 80.2418 66.706 80.1394 66.5993C80.037 66.4925 79.9573 66.3662 79.905 66.2278C79.8527 66.0894 79.8289 65.9419 79.8351 65.7941V56.936C79.8289 56.7882 79.8527 56.6407 79.905 56.5024C79.9573 56.364 80.037 56.2376 80.1394 56.1309C80.2418 56.0241 80.3647 55.9392 80.5008 55.8812C80.6368 55.8231 80.7832 55.7932 80.9311 55.7932C81.079 55.7932 81.2254 55.8231 81.3615 55.8812C81.4975 55.9392 81.6205 56.0241 81.7228 56.1309C81.8252 56.2376 81.9049 56.364 81.9572 56.5024C82.0095 56.6407 82.0333 56.7882 82.0271 56.936V56.936ZM88.7278 65.8766C88.7239 66.1481 88.6155 66.4077 88.4251 66.6013C88.2347 66.7949 87.977 66.9076 87.7056 66.916C87.5349 66.91 87.3678 66.8661 87.2162 66.7875C87.0646 66.7089 86.9324 66.5976 86.8292 66.4615L82.7559 61.7707C82.5763 61.5694 82.4731 61.3115 82.4644 61.0419C82.4752 60.7786 82.5856 60.5291 82.7731 60.3439L86.6336 56.1728C86.7325 56.0593 86.855 55.9687 86.9923 55.9071C87.1297 55.8455 87.2789 55.8144 87.4294 55.8161C87.6956 55.8221 87.9488 55.9328 88.134 56.1241C88.3192 56.3154 88.4216 56.572 88.419 56.8382C88.4162 56.9754 88.3861 57.1107 88.3304 57.2361C88.2748 57.3616 88.1947 57.4747 88.0949 57.5689L84.8654 61.0573L88.4516 65.2111C88.6243 65.3902 88.723 65.6279 88.7278 65.8766V65.8766Z" fill="#282D26"/>
<path d="M99.2964 56.936V64.7413H99.5879C99.7359 64.7373 99.8832 64.7635 100.021 64.8183C100.158 64.873 100.283 64.9552 100.388 65.0598C100.493 65.1644 100.575 65.2892 100.63 65.4267C100.685 65.5641 100.712 65.7113 100.708 65.8593V68.0839C100.708 68.3743 100.593 68.6529 100.387 68.8582C100.182 69.0636 99.9033 69.1789 99.6129 69.1789C99.3224 69.1789 99.0439 69.0636 98.8386 68.8582C98.6332 68.6529 98.5178 68.3743 98.5178 68.0839V66.7204H91.7021C91.5538 66.7255 91.4059 66.7 91.2679 66.6455C91.1298 66.591 91.0044 66.5086 90.8995 66.4036C90.7946 66.2985 90.7125 66.173 90.6582 66.0348C90.604 65.8966 90.5787 65.7488 90.5841 65.6004V56.936C90.5841 56.7922 90.6124 56.6498 90.6674 56.5169C90.7225 56.3841 90.8031 56.2634 90.9048 56.1617C91.0065 56.06 91.1272 55.9794 91.2601 55.9243C91.3929 55.8693 91.5353 55.841 91.6791 55.841C91.8229 55.841 91.9653 55.8693 92.0982 55.9243C92.231 55.9794 92.3517 56.06 92.4534 56.1617C92.5551 56.2634 92.6358 56.3841 92.6908 56.5169C92.7458 56.6498 92.7741 56.7922 92.7741 56.936V64.7413H97.1064V56.936C97.1004 56.7901 97.1241 56.6445 97.1762 56.508C97.2283 56.3716 97.3077 56.2472 97.4094 56.1424C97.5112 56.0376 97.6331 55.9546 97.768 55.8985C97.9028 55.8424 98.0477 55.8143 98.1937 55.816C98.3406 55.8139 98.4864 55.8415 98.6223 55.8973C98.7581 55.953 98.8813 56.0357 98.9844 56.1404C99.0874 56.2451 99.1682 56.3695 99.2218 56.5063C99.2755 56.643 99.3009 56.7892 99.2964 56.936V56.936Z" fill="#282D26"/>
<path d="M111.651 56.9186V65.794C111.651 66.0844 111.535 66.363 111.33 66.5683C111.125 66.7737 110.846 66.889 110.556 66.889C110.265 66.889 109.987 66.7737 109.781 66.5683C109.576 66.363 109.461 66.0844 109.461 65.794V59.849L104.367 66.4365C104.234 66.6295 104.042 66.7747 103.82 66.8507C103.599 66.9266 103.358 66.9294 103.135 66.8585C102.911 66.7877 102.716 66.6469 102.579 66.457C102.441 66.2671 102.368 66.0381 102.371 65.8036V56.9359C102.371 56.6455 102.486 56.367 102.691 56.1616C102.897 55.9562 103.175 55.8409 103.466 55.8409C103.756 55.8409 104.035 55.9562 104.24 56.1616C104.445 56.367 104.561 56.6455 104.561 56.9359V62.9059L109.51 56.4641C109.787 56.1074 110.028 55.8159 110.565 55.8159C110.709 55.8151 110.852 55.8432 110.985 55.8986C111.119 55.9539 111.239 56.0354 111.341 56.1382C111.442 56.241 111.521 56.363 111.575 56.4971C111.628 56.6311 111.654 56.7744 111.651 56.9186V56.9186Z" fill="#282D26"/>
<path d="M121.978 57.1297V65.7941C121.984 65.9419 121.96 66.0894 121.908 66.2278C121.856 66.3662 121.776 66.4925 121.673 66.5993C121.571 66.706 121.448 66.791 121.312 66.849C121.176 66.907 121.03 66.9369 120.882 66.9369C120.734 66.9369 120.587 66.907 120.451 66.849C120.315 66.791 120.192 66.706 120.09 66.5993C119.988 66.4925 119.908 66.3662 119.856 66.2278C119.803 66.0894 119.78 65.9419 119.786 65.7941V63.4257H118.196C117.985 63.4257 117.791 63.4104 117.596 63.395L115.617 66.4634C115.525 66.6075 115.398 66.7252 115.247 66.805C115.097 66.8847 114.928 66.9236 114.757 66.9179C114.469 66.9134 114.194 66.7945 113.993 66.5874C113.792 66.3803 113.681 66.1019 113.685 65.8133C113.697 65.5619 113.782 65.3194 113.929 65.1152L115.563 62.6644C115.086 62.3361 114.698 61.8943 114.435 61.3786C114.171 60.863 114.04 60.2899 114.054 59.711C114.054 57.5037 115.741 56.0117 118.19 56.0117H120.852C121.001 56.0055 121.149 56.0301 121.288 56.0841C121.427 56.138 121.553 56.22 121.659 56.3249C121.765 56.4299 121.847 56.5556 121.902 56.694C121.957 56.8325 121.983 56.9809 121.978 57.1297V57.1297ZM119.782 57.9505H118.159C117.057 57.9505 116.293 58.6639 116.293 59.7206C116.293 60.7773 117.061 61.506 118.159 61.506H119.782V57.9505Z" fill="#282D26"/>
<path d="M30.4606 79.813C30.4606 81.6636 29.0012 82.96 26.9243 82.96H23.2806C23.1322 82.9653 22.9844 82.9401 22.8462 82.8858C22.708 82.8316 22.5825 82.7494 22.4774 82.6446C22.3724 82.5397 22.29 82.4143 22.2355 82.2762C22.181 82.1381 22.1555 81.9903 22.1606 81.8419V73.3655C22.1555 73.217 22.181 73.0691 22.2355 72.9309C22.29 72.7928 22.3723 72.6673 22.4773 72.5622C22.5824 72.4572 22.7079 72.3749 22.846 72.3204C22.9842 72.2659 23.1321 72.2404 23.2806 72.2455H25.9654C27.9618 72.2455 29.356 73.4633 29.356 75.2314C29.3679 75.5912 29.3033 75.9494 29.1664 76.2823C29.0295 76.6152 28.8235 76.9153 28.5621 77.1626C29.7472 77.5845 30.4606 78.5242 30.4606 79.813ZM24.2778 74.1268V76.5777H25.7871C26.6462 76.5777 27.1813 76.1079 27.1813 75.3446C27.1813 74.5813 26.6462 74.1268 25.7871 74.1268H24.2778ZM28.2859 79.7247C28.2859 78.8829 27.7106 78.3823 26.7517 78.3823H24.2778V81.0768H26.7709C27.7183 81.0729 28.2878 80.5801 28.2878 79.7247H28.2859Z" fill="#282D26"/>
<path d="M43.0083 77.6C43.0083 80.6991 40.4941 83.15 37.2972 83.15C34.1004 83.15 31.6188 80.7145 31.6188 77.6C31.6188 74.4856 34.1119 72.05 37.2972 72.05C40.4826 72.05 43.0083 74.5009 43.0083 77.6ZM33.8741 77.6C33.8741 79.6616 35.3028 81.121 37.3145 81.121C39.3262 81.121 40.753 79.6444 40.753 77.6C40.753 75.5557 39.309 74.079 37.3183 74.079C35.3277 74.079 33.8664 75.5404 33.8664 77.6H33.8741Z" fill="#282D26"/>
<path d="M44.2493 77.5995C44.2493 74.4832 46.7423 72.0495 49.9603 72.0495C50.7431 72.0392 51.5188 72.1995 52.2334 72.519C52.9481 72.8386 53.5846 73.3099 54.0988 73.9002C54.3104 74.1181 54.4323 74.4077 54.4402 74.7114C54.4347 74.9779 54.3242 75.2315 54.1329 75.4172C53.9415 75.6028 53.6846 75.7054 53.418 75.7029C53.255 75.6978 53.0951 75.6572 52.9494 75.5841C52.8036 75.5109 52.6756 75.4068 52.5742 75.279C52.2574 74.8946 51.8576 74.587 51.4049 74.379C50.9523 74.1711 50.4584 74.0684 49.9603 74.0785C47.9486 74.0785 46.5084 75.5552 46.5084 77.6168C46.5084 79.6784 47.9525 81.1205 49.9603 81.1205C50.4554 81.1272 50.9456 81.0228 51.395 80.8151C51.8443 80.6073 52.2414 80.3015 52.557 79.92C52.6617 79.7919 52.7929 79.6879 52.9415 79.6151C53.0901 79.5423 53.2526 79.5024 53.418 79.4981C53.549 79.4971 53.6789 79.5219 53.8003 79.5711C53.9216 79.6202 54.0321 79.6929 54.1254 79.7847C54.2188 79.8766 54.2931 79.986 54.3441 80.1066C54.3952 80.2272 54.4219 80.3567 54.423 80.4877C54.4117 80.7912 54.2904 81.0802 54.0816 81.3008C53.1419 82.4514 51.6 83.1495 49.945 83.1495C46.7328 83.1495 44.2493 80.714 44.2493 77.5995Z" fill="#282D26"/>
<path d="M56.5382 82.0299V73.3655C56.5331 73.217 56.5586 73.0691 56.6131 72.9309C56.6676 72.7928 56.7499 72.6673 56.8549 72.5622C56.96 72.4572 57.0855 72.3749 57.2236 72.3204C57.3618 72.2659 57.5097 72.2404 57.6582 72.2455H64.1785C64.3266 72.2418 64.4739 72.2683 64.6114 72.3233C64.749 72.3782 64.8739 72.4606 64.9787 72.5653C65.0834 72.6701 65.1658 72.795 65.2208 72.9326C65.2757 73.0701 65.3022 73.2174 65.2985 73.3655V82.0299C65.2985 82.3203 65.1831 82.5988 64.9778 82.8042C64.7724 83.0096 64.4939 83.1249 64.2035 83.1249C63.913 83.1249 63.6345 83.0096 63.4292 82.8042C63.2238 82.5988 63.1084 82.3203 63.1084 82.0299V74.2246H58.7283V82.0299C58.7283 82.3203 58.6129 82.5988 58.4075 82.8042C58.2022 83.0096 57.9237 83.1249 57.6332 83.1249C57.3428 83.1249 57.0643 83.0096 56.8589 82.8042C56.6536 82.5988 56.5382 82.3203 56.5382 82.0299V82.0299Z" fill="#282D26"/>
<path d="M67.7417 82.0299V73.3655C67.7364 73.2171 67.7616 73.0693 67.8159 72.9311C67.8702 72.7929 67.9523 72.6674 68.0572 72.5623C68.162 72.4573 68.2874 72.3749 68.4255 72.3204C68.5636 72.2659 68.7114 72.2404 68.8598 72.2455H71.7805C74.0703 72.2455 75.6275 73.6416 75.6275 75.6975C75.6275 77.7533 74.0358 79.1686 71.7805 79.1686H69.9318V82.0241C69.9318 82.3146 69.8164 82.5931 69.6111 82.7984C69.4057 83.0038 69.1272 83.1192 68.8368 83.1192C68.5463 83.1192 68.2678 83.0038 68.0625 82.7984C67.8571 82.5931 67.7417 82.3146 67.7417 82.0241V82.0299ZM71.769 77.2604C72.7758 77.2604 73.3914 76.6583 73.3914 75.7032C73.3914 74.7769 72.7758 74.169 71.769 74.169H69.9356V77.2528L71.769 77.2604Z" fill="#282D26"/>
<path d="M86.6661 73.1547V82.03C86.6661 82.1739 86.6378 82.3162 86.5827 82.4491C86.5277 82.582 86.447 82.7027 86.3454 82.8044C86.2437 82.906 86.123 82.9867 85.9901 83.0417C85.8572 83.0968 85.7148 83.1251 85.571 83.1251C85.4272 83.1251 85.2848 83.0968 85.152 83.0417C85.0191 82.9867 84.8984 82.906 84.7967 82.8044C84.6951 82.7027 84.6144 82.582 84.5594 82.4491C84.5043 82.3162 84.476 82.1739 84.476 82.03V76.085L79.3805 82.6725C79.2474 82.8655 79.0558 83.0107 78.834 83.0867C78.6121 83.1627 78.3718 83.1654 78.1482 83.0946C77.9247 83.0237 77.7298 82.883 77.5923 82.6931C77.4547 82.5032 77.3818 82.2741 77.3842 82.0396V73.1719C77.3842 72.8815 77.4995 72.603 77.7049 72.3976C77.9102 72.1923 78.1888 72.0769 78.4792 72.0769C78.7696 72.0769 79.0481 72.1923 79.2535 72.3976C79.4589 72.603 79.5742 72.8815 79.5742 73.1719V79.1419L84.524 72.7002C84.8001 72.3435 85.0437 72.0501 85.5787 72.0501C85.7231 72.0495 85.8662 72.0779 85.9995 72.1334C86.1328 72.1889 86.2536 72.2706 86.3549 72.3735C86.4562 72.4764 86.5359 72.5985 86.5894 72.7327C86.6428 72.8668 86.6689 73.0103 86.6661 73.1547V73.1547Z" fill="#282D26"/>
<path d="M96.9913 73.3656V82.03C96.9913 82.1738 96.963 82.3162 96.9079 82.449C96.8529 82.5819 96.7723 82.7026 96.6706 82.8043C96.5689 82.906 96.4482 82.9866 96.3153 83.0417C96.1825 83.0967 96.0401 83.125 95.8963 83.125C95.7525 83.125 95.6101 83.0967 95.4772 83.0417C95.3444 82.9866 95.2236 82.906 95.122 82.8043C95.0203 82.7026 94.9396 82.5819 94.8846 82.449C94.8295 82.3162 94.8012 82.1738 94.8012 82.03V79.6615H93.2095C93.0005 79.6615 92.8048 79.6443 92.6092 79.6289L90.632 82.6897C90.5414 82.8343 90.4143 82.9525 90.2635 83.0323C90.1126 83.112 89.9434 83.1507 89.7729 83.1442C89.4843 83.1396 89.2093 83.0208 89.0083 82.8137C88.8073 82.6065 88.6968 82.3281 88.7009 82.0396C88.7129 81.7882 88.7975 81.5458 88.9444 81.3415L90.5841 78.8925C90.1068 78.5645 89.7188 78.1227 89.4553 77.6071C89.1918 77.0914 89.061 76.5181 89.0748 75.9392C89.0748 73.7318 90.7624 72.2398 93.2114 72.2398H95.8733C96.022 72.235 96.1702 72.2608 96.3086 72.3158C96.4469 72.3707 96.5725 72.4536 96.6774 72.5592C96.7823 72.6649 96.8643 72.791 96.9183 72.9297C96.9723 73.0684 96.9972 73.2168 96.9913 73.3656ZM94.8012 74.1768H93.1788C92.0742 74.1768 91.3128 74.8902 91.3128 75.9449C91.3128 76.9997 92.0799 77.7304 93.1788 77.7304H94.8012V74.1768Z" fill="#282D26"/>
<path d="M101.849 82.03V74.2247H99.3002C99.1703 74.2247 99.0416 74.1991 98.9215 74.1494C98.8015 74.0997 98.6924 74.0268 98.6005 73.9349C98.5086 73.843 98.4357 73.7339 98.386 73.6139C98.3363 73.4938 98.3107 73.3651 98.3107 73.2352C98.3107 73.1052 98.3363 72.9765 98.386 72.8565C98.4357 72.7364 98.5086 72.6273 98.6005 72.5354C98.6924 72.4436 98.8015 72.3707 98.9215 72.3209C99.0416 72.2712 99.1703 72.2456 99.3002 72.2456H106.588C106.72 72.2389 106.853 72.2598 106.977 72.3069C107.101 72.354 107.214 72.4264 107.308 72.5194C107.403 72.6124 107.477 72.724 107.527 72.8473C107.576 72.9705 107.599 73.1026 107.595 73.2352C107.595 73.3667 107.569 73.4969 107.518 73.6182C107.467 73.7395 107.393 73.8495 107.299 73.9417C107.205 74.0338 107.094 74.1063 106.972 74.1549C106.85 74.2036 106.719 74.2273 106.588 74.2247H104.039V82.03C104.039 82.3204 103.924 82.5989 103.718 82.8043C103.513 83.0097 103.234 83.125 102.944 83.125C102.654 83.125 102.375 83.0097 102.17 82.8043C101.964 82.5989 101.849 82.3204 101.849 82.03V82.03Z" fill="#282D26"/>
<path d="M118.209 73.1544V82.0297C118.209 82.1735 118.181 82.3159 118.126 82.4488C118.071 82.5816 117.99 82.7024 117.889 82.804C117.787 82.9057 117.666 82.9864 117.533 83.0414C117.4 83.0964 117.258 83.1248 117.114 83.1248C116.97 83.1248 116.828 83.0964 116.695 83.0414C116.562 82.9864 116.442 82.9057 116.34 82.804C116.238 82.7024 116.158 82.5816 116.103 82.4488C116.048 82.3159 116.019 82.1735 116.019 82.0297V76.0847L110.924 82.6722C110.791 82.8652 110.599 83.0104 110.377 83.0864C110.155 83.1624 109.915 83.1651 109.691 83.0943C109.468 83.0234 109.273 82.8827 109.135 82.6928C108.998 82.5028 108.925 82.2738 108.927 82.0393V73.1716C108.921 73.0238 108.945 72.8763 108.997 72.738C109.05 72.5996 109.129 72.4732 109.232 72.3665C109.334 72.2597 109.457 72.1748 109.593 72.1168C109.729 72.0587 109.875 72.0288 110.023 72.0288C110.171 72.0288 110.318 72.0587 110.454 72.1168C110.59 72.1748 110.713 72.2597 110.815 72.3665C110.917 72.4732 110.997 72.5996 111.049 72.738C111.102 72.8763 111.126 73.0238 111.119 73.1716V79.1416L116.067 72.6999C116.343 72.3432 116.587 72.0497 117.122 72.0497C117.266 72.0489 117.41 72.0771 117.543 72.1325C117.676 72.188 117.797 72.2696 117.899 72.3726C118 72.4755 118.08 72.5978 118.133 72.732C118.186 72.8663 118.212 73.0099 118.209 73.1544V73.1544Z" fill="#282D26"/>
<path d="M128.536 73.3654V82.0298C128.543 82.1776 128.519 82.3251 128.466 82.4635C128.414 82.6018 128.334 82.7282 128.232 82.835C128.13 82.9417 128.007 83.0267 127.871 83.0847C127.735 83.1427 127.588 83.1726 127.44 83.1726C127.292 83.1726 127.146 83.1427 127.01 83.0847C126.874 83.0267 126.751 82.9417 126.649 82.835C126.546 82.7282 126.466 82.6018 126.414 82.4635C126.362 82.3251 126.338 82.1776 126.344 82.0298V79.6614H124.755C124.544 79.6614 124.35 79.6441 124.154 79.6288L122.175 82.6972C122.084 82.8412 121.957 82.9588 121.806 83.0382C121.655 83.1176 121.486 83.1561 121.316 83.1498C121.173 83.1475 121.032 83.1172 120.901 83.0605C120.77 83.0037 120.651 82.9217 120.552 82.8191C120.453 82.7166 120.375 82.5954 120.322 82.4626C120.269 82.3298 120.244 82.188 120.246 82.0452C120.258 81.7938 120.343 81.5514 120.489 81.3471L122.127 78.8981C121.651 78.5697 121.263 78.1277 121 77.6121C120.737 77.0965 120.606 76.5235 120.62 75.9448C120.62 73.7375 122.307 72.2454 124.756 72.2454H127.418C127.567 72.2406 127.714 72.2663 127.852 72.3209C127.99 72.3755 128.115 72.4579 128.22 72.5629C128.325 72.6679 128.407 72.7933 128.462 72.9313C128.516 73.0694 128.541 73.2171 128.536 73.3654ZM126.344 74.1766H124.722C123.619 74.1766 122.856 74.89 122.856 75.9448C122.856 76.9996 123.623 77.7302 124.722 77.7302H126.344V74.1766Z" fill="#282D26"/>
<path fill-rule="evenodd" clip-rule="evenodd" d="M70.1292 8.3879C79.2021 6.66192 88.6739 9.55581 95.6219 16.4731C95.8287 16.6789 96.1087 16.7941 96.4004 16.7933C96.6921 16.7926 96.9715 16.6761 97.1772 16.4693C97.383 16.2626 97.4981 15.9825 97.4974 15.6909C97.4967 15.3992 97.3801 15.1197 97.1734 14.914C89.7248 7.50189 79.5301 4.36637 69.7208 6.22851C59.9114 8.09064 50.5777 14.9389 44.8264 27.2663C44.7563 27.4168 44.7211 27.5812 44.7234 27.7472C44.7257 27.9133 44.7655 28.0766 44.8398 28.2251C44.9165 28.3786 45.0028 28.5588 45.1025 28.7679C46.0192 30.6856 48.0137 34.8644 53.3489 40.3127C53.4478 40.4234 53.5681 40.5128 53.7025 40.5757C53.8369 40.6385 53.9826 40.6735 54.1309 40.6786C54.2792 40.6836 54.427 40.6585 54.5654 40.6048C54.7037 40.5512 54.8298 40.4701 54.9359 40.3664C55.0421 40.2627 55.1261 40.1386 55.183 40.0016C55.2399 39.8645 55.2684 39.7173 55.2669 39.569C55.2654 39.4206 55.2338 39.2741 55.1741 39.1382C55.1144 39.0024 55.0278 38.88 54.9195 38.7785C49.8375 33.5853 47.9677 29.6654 47.0721 27.7917L47.0433 27.7304C52.5396 16.2718 61.1944 10.0813 70.1292 8.3879ZM66.8518 12.8965C64.2532 13.9686 62.3566 15.405 60.7648 16.6764C60.6515 16.7667 60.5571 16.8784 60.4869 17.0052C60.4168 17.132 60.3723 17.2714 60.356 17.4153C60.3397 17.5593 60.3519 17.7051 60.392 17.8443C60.432 17.9836 60.4991 18.1136 60.5894 18.2269C60.6797 18.3403 60.7914 18.4347 60.9182 18.5048C61.0449 18.575 61.1843 18.6195 61.3283 18.6358C61.4723 18.6521 61.618 18.6399 61.7573 18.5998C61.8965 18.5598 62.0265 18.4927 62.1399 18.4024C63.6894 17.1616 65.3885 15.8882 67.6898 14.937C69.9912 13.9858 72.9292 13.3453 76.966 13.4604C77.1129 13.469 77.26 13.4482 77.3986 13.3989C77.5372 13.3497 77.6646 13.2732 77.773 13.1738C77.8815 13.0745 77.969 12.9543 78.0302 12.8206C78.0914 12.6868 78.1251 12.5421 78.1293 12.3951C78.1336 12.248 78.1082 12.1016 78.0548 11.9645C78.0014 11.8275 77.9211 11.7025 77.8185 11.5971C77.7159 11.4917 77.5932 11.4079 77.4576 11.3508C77.3221 11.2936 77.1764 11.2643 77.0293 11.2645C72.7182 11.1303 69.4619 11.8207 66.8518 12.8965ZM80.0229 12.8409C79.9839 12.9803 79.9728 13.1261 79.9903 13.2697C80.0077 13.4134 80.0534 13.5523 80.1247 13.6783C80.196 13.8043 80.2915 13.9149 80.4056 14.0039C80.5198 14.0929 80.6504 14.1584 80.79 14.1968C84.4088 15.2093 91.3147 18.5443 95.8751 27.7265C95.574 28.2827 95.1962 28.8983 94.78 29.5503C94.6285 29.79 94.4694 30.0355 94.3102 30.2829C93.9266 30.8793 93.5431 31.4872 93.1941 32.053C93.044 32.303 92.9994 32.6023 93.0701 32.8852C93.1408 33.168 93.3209 33.4112 93.5709 33.5613C93.8209 33.7113 94.1202 33.7559 94.4031 33.6853C94.686 33.6146 94.9292 33.4344 95.0792 33.1845C95.3995 32.6494 95.76 32.0913 96.134 31.5103C96.2989 31.2546 96.4657 30.995 96.6345 30.7316C97.1683 29.9206 97.6555 29.0799 98.0939 28.2136C98.1649 28.0655 98.2017 27.9033 98.2017 27.739C98.2017 27.5747 98.1649 27.4125 98.0939 27.2643C93.2171 17.037 85.5537 13.2475 81.3826 12.0796C81.1021 12.0017 80.8022 12.038 80.5485 12.1807C80.2947 12.3234 80.1078 12.5608 80.0287 12.8409H80.0229ZM88.9098 24.7828C84.7655 18.483 79.3824 16.7493 75.428 16.7493C75.2837 16.7496 75.1408 16.7782 75.0076 16.8337C74.8744 16.8891 74.7534 16.9703 74.6515 17.0725C74.5497 17.1747 74.4689 17.296 74.4139 17.4294C74.359 17.5628 74.3308 17.7058 74.331 17.8501V23.4308C74.3308 23.5752 74.359 23.7183 74.4141 23.8519C74.4692 23.9854 74.5501 24.1068 74.6522 24.209C74.7543 24.3113 74.8755 24.3924 75.0089 24.4477C75.1424 24.5031 75.2854 24.5315 75.4299 24.5315C75.7828 24.5315 78.3986 24.7674 80.0325 27.6997C78.8819 29.5446 77.5394 30.3999 76.2986 30.6492C74.9275 30.9215 73.4354 30.5092 72.0623 29.4659C71.4638 29.0017 70.9785 28.4076 70.6432 27.7284L70.6931 27.6364C70.98 27.1393 71.3343 26.6843 71.7459 26.2844C71.8479 26.1823 71.9288 26.061 71.9839 25.9277C72.0391 25.7943 72.0674 25.6513 72.0673 25.507C72.0672 25.3627 72.0387 25.2198 71.9834 25.0865C71.9281 24.9531 71.8471 24.832 71.7449 24.73C71.6428 24.628 71.5216 24.5472 71.3882 24.492C71.2548 24.4369 71.1119 24.4085 70.9676 24.4086C70.8232 24.4087 70.6803 24.4372 70.547 24.4925C70.4137 24.5478 70.2926 24.6289 70.1906 24.731C69.6358 25.2744 69.1588 25.892 68.7734 26.5663C68.6635 26.7606 68.5661 26.9617 68.4819 27.1685C68.4512 27.2433 68.4282 27.3085 68.4128 27.3602L68.3994 27.3986C68.3994 27.4082 68.3994 27.4159 68.3994 27.4235V27.4369V27.4465C68.3341 27.6869 68.3517 27.9423 68.4493 28.1714C68.7976 29.0046 69.2889 29.7705 69.901 30.4344L67.4194 33.4299C65.8009 32.1604 64.1919 30.3308 62.8168 27.7093C63.8663 25.5832 65.3423 23.6959 67.1529 22.165C68.9172 20.65 70.5243 19.835 71.2262 19.672C71.511 19.6097 71.7594 19.4368 71.9168 19.1913C72.0741 18.9458 72.1275 18.6479 72.0652 18.3631C72.0029 18.0783 71.83 17.8299 71.5845 17.6725C71.3391 17.5152 71.0412 17.4618 70.7563 17.5241C69.5347 17.7906 67.5959 18.8665 65.7203 20.4889C63.8026 22.1324 61.8215 24.4376 60.5884 27.2931C60.5251 27.4401 60.4946 27.599 60.4989 27.759C60.5032 27.9189 60.5422 28.076 60.6133 28.2194C62.4256 31.8631 64.6886 34.268 66.9956 35.829C69.1052 37.2539 70.6585 37.7986 72.4881 38.0728C72.6324 38.0979 72.7803 38.094 72.923 38.0611C73.0658 38.0283 73.2005 37.9672 73.3193 37.8816C73.4381 37.7959 73.5386 37.6873 73.6149 37.5623C73.6911 37.4372 73.7416 37.2982 73.7634 37.1533C73.7851 37.0084 73.7776 36.8607 73.7415 36.7187C73.7053 36.5768 73.6411 36.4435 73.5526 36.3268C73.4642 36.21 73.3533 36.1121 73.2265 36.0388C73.0996 35.9655 72.9594 35.9183 72.8141 35.9C71.5563 35.729 70.3461 35.305 69.2567 34.6535L71.6328 31.7768C73.1919 32.7069 74.9696 33.1193 76.7512 32.7721C78.8915 32.3464 80.8207 30.8429 82.2686 28.2405C82.3536 28.0888 82.4012 27.9191 82.4075 27.7453C82.4139 27.5716 82.3787 27.3988 82.3051 27.2413C80.7229 23.8603 78.1071 22.7672 76.5518 22.4354V18.9835C79.7142 19.2827 83.7875 20.9434 87.0994 25.9737C87.2597 26.2173 87.5101 26.3873 87.7956 26.4463C88.0812 26.5053 88.3785 26.4484 88.6221 26.2882C88.8658 26.128 89.0358 25.8776 89.0948 25.592C89.1537 25.3064 89.0969 25.0091 88.9366 24.7655L88.9098 24.7828ZM98.6021 17.9786C98.3795 18.1667 98.2404 18.4353 98.2153 18.7257C98.1901 19.016 98.2809 19.3045 98.4679 19.5281C99.6276 20.9635 100.712 22.4582 101.717 24.0061C102.292 24.8921 102.817 25.7532 103.199 26.4723C103.36 26.7721 103.506 27.08 103.636 27.3948C103.667 27.4662 103.694 27.5392 103.717 27.6134C102.443 30.4708 100.123 34.1779 96.9279 37.5723C93.616 41.0933 89.4199 44.2211 84.5469 45.7553C84.4072 45.7969 84.2771 45.8658 84.1643 45.9581C84.0515 46.0504 83.9581 46.1643 83.8897 46.293C83.8213 46.4217 83.7792 46.5628 83.7659 46.7079C83.7525 46.8531 83.7682 46.9995 83.8119 47.1385C83.8557 47.2776 83.9267 47.4065 84.0208 47.5179C84.1149 47.6292 84.2302 47.7207 84.36 47.7871C84.4898 47.8534 84.6315 47.8933 84.7768 47.9043C84.9222 47.9154 85.0683 47.8974 85.2066 47.8514C90.5418 46.1734 95.0447 42.7828 98.5292 39.0796C102.014 35.3764 104.532 31.3012 105.876 28.1619C105.947 27.9982 105.976 27.8198 105.962 27.6421C105.92 27.2755 105.824 26.9169 105.679 26.5778C105.519 26.1911 105.34 25.8128 105.142 25.4444C104.718 24.6428 104.156 23.7184 103.558 22.8056C102.507 21.1814 101.372 19.6137 100.157 18.109C100.064 17.9986 99.9503 17.9077 99.822 17.8414C99.6937 17.7751 99.5536 17.7347 99.4097 17.7226C99.2658 17.7105 99.1209 17.7268 98.9833 17.7708C98.8457 17.8147 98.7181 17.8853 98.6079 17.9786H98.6021ZM58.9506 19.7525C58.7283 19.5645 58.4404 19.4725 58.1502 19.4965C57.8601 19.5206 57.5913 19.6589 57.403 19.881C56.3966 21.0926 55.4642 22.3639 54.6108 23.6877C53.7497 25.0148 52.9749 26.3726 52.6163 27.366C52.5168 27.6398 52.5299 27.9418 52.6527 28.206C53.9952 31.0826 56.214 34.4693 59.7676 37.8197L56.6551 41.7031C56.5612 41.8209 56.4925 41.9566 56.4532 42.102C56.4139 42.2474 56.4048 42.3993 56.4266 42.5483C56.4483 42.6973 56.5004 42.8403 56.5796 42.9684C56.6589 43.0965 56.7635 43.2069 56.8871 43.2929C59.0293 44.7792 61.8445 46.718 65.7242 48.0336C69.6038 49.3492 74.5209 50.0319 80.8744 49.1037C81.0172 49.0828 81.1545 49.034 81.2784 48.96C81.4023 48.8861 81.5105 48.7884 81.5967 48.6727C81.6829 48.5569 81.7454 48.4253 81.7807 48.2854C81.8161 48.1455 81.8235 48 81.8026 47.8572C81.7817 47.7144 81.7329 47.5771 81.6589 47.4532C81.585 47.3293 81.4873 47.2211 81.3716 47.1349C81.2558 47.0487 81.1242 46.9862 80.9843 46.9509C80.8444 46.9155 80.6989 46.9081 80.5561 46.929C74.5401 47.8092 69.9835 47.1553 66.4337 45.9509C63.3941 44.9211 61.064 43.4751 59.1137 42.1557L61.4514 39.2369C65.0318 41.893 69.7764 43.8683 74.9351 44.0313C80.5599 44.2 86.6066 42.196 92.0779 36.692C92.1878 36.5811 92.2728 36.448 92.3274 36.3017C92.3819 36.1553 92.4046 35.9991 92.3941 35.8432C92.3836 35.6874 92.34 35.5356 92.2663 35.398C92.1926 35.2603 92.0905 35.1399 91.9667 35.0447L87.8263 31.8689C88.0909 31.5256 88.3153 31.2149 88.5205 30.9368C88.6451 30.7642 88.7621 30.6032 88.8753 30.4517C88.965 30.3364 89.0309 30.2045 89.069 30.0635C89.1072 29.9226 89.1168 29.7754 89.0974 29.6307C89.0781 29.4859 89.03 29.3465 88.9562 29.2205C88.8823 29.0946 88.784 28.9846 88.6672 28.897C88.5503 28.8095 88.4171 28.7461 88.2755 28.7106C88.1338 28.6751 87.9865 28.6682 87.8422 28.6902C87.6978 28.7123 87.5593 28.7629 87.4347 28.8392C87.3102 28.9154 87.2021 29.0157 87.1167 29.1342C86.9786 29.3163 86.8482 29.4985 86.7121 29.6826C86.3553 30.1717 85.9776 30.6914 85.4233 31.3549C84.6466 32.2869 81.4536 35.7178 76.8548 36.2011C76.7112 36.2162 76.5721 36.2594 76.4452 36.3283C76.3184 36.3972 76.2064 36.4904 76.1155 36.6026C76.0247 36.7148 75.9569 36.8438 75.9159 36.9822C75.8749 37.1206 75.8616 37.2657 75.8767 37.4093C75.8919 37.5528 75.9351 37.692 76.004 37.8188C76.0729 37.9457 76.1661 38.0577 76.2783 38.1485C76.3905 38.2393 76.5194 38.3072 76.6579 38.3481C76.7963 38.3891 76.9414 38.4024 77.0849 38.3873C81.6185 37.9021 84.9055 35.0888 86.4129 33.5373L89.6213 36.0016C84.8269 40.4125 79.7142 41.9658 75.0061 41.8239C69.9758 41.6744 65.3348 39.5936 61.9922 36.8685C58.4137 33.6716 56.1852 30.4325 54.8505 27.7073C55.3173 26.7286 55.8537 25.7845 56.4556 24.8825C57.2579 23.6373 58.1347 22.4416 59.0811 21.302C59.2689 21.0791 59.3607 20.7908 59.3363 20.5003C59.3118 20.2098 59.1731 19.9409 58.9506 19.7525V19.7525Z" fill="#282D26"/>
</svg>
