<svg width="119" height="76" viewBox="0 0 119 76" fill="none" xmlns="http://www.w3.org/2000/svg">
<path d="M100.345 44.1906L93.2964 44.1975L92.7328 44.1981L92.3369 44.5613L70.3663 61.6721L70.3345 61.697L70.304 61.7235L67.6863 64.0073C66.1647 65.3321 63.8586 65.1735 62.5359 63.6545L62.4684 63.5769L62.3905 63.5096L60.464 61.8447L59.5105 61.0206L58.5616 61.85C57.9938 62.3463 57.3152 62.6325 56.6149 62.7189C55.4481 62.8624 54.2414 62.4446 53.4133 61.495C53.4132 61.4949 53.413 61.4947 53.4129 61.4945L49.8685 57.4244L48.9142 56.3285L47.8204 57.2852C47.2502 57.7839 46.571 58.072 45.8746 58.1576L45.8744 58.1576C44.709 58.301 43.5016 57.8804 42.6769 56.9333L42.6763 56.9327L39.1275 52.8622L38.1753 51.77L37.0824 52.7215C35.5608 54.0463 33.2578 53.8874 31.9355 52.3711L31.9349 52.3704L30.9941 51.2928C30.994 51.2927 30.9938 51.2925 30.9937 51.2924C30.0813 50.2445 30.1891 48.6588 31.2328 47.7448L40.5119 39.8297L40.5177 39.8248L40.5234 39.8198L43.7879 36.9756L43.7881 36.9754L45.4198 35.5543L48.0074 33.3007L44.5878 33.0159C43.6709 32.9395 42.7622 32.7451 41.8836 32.4133L41.8834 32.4132L41.3568 32.2144C41.3567 32.2144 41.3566 32.2144 41.3565 32.2143C40.424 31.862 40.0309 30.7565 40.5317 29.8946L40.5317 29.8946L53.4103 7.72802C54.3078 6.18324 55.8974 5.16814 57.6764 5.00365L57.6764 5.00364L75.9483 3.31376C75.9483 3.31376 75.9484 3.31375 75.9484 3.31375C77.0656 3.21058 78.1875 3.44996 79.1652 4.00005C79.1652 4.00006 79.1652 4.00007 79.1652 4.00009L90.7373 10.5125L91.1522 10.746L91.6247 10.6881L96.1529 10.1337L99.1612 34.5712L100.345 44.1906Z" fill="white" stroke="#282D26" stroke-width="2.9"/>
<path d="M94.2264 51.2726L94.2269 51.273C95.2804 52.1805 95.3987 53.7691 94.4905 54.8236C94.4905 54.8237 94.4904 54.8238 94.4903 54.8239L93.5552 55.907L93.5547 55.9076C92.2408 57.4314 89.9387 57.603 88.41 56.2867C87.8034 55.7644 86.8883 55.8324 86.3656 56.4387L82.8396 60.5288L82.839 60.5296C82.0196 61.4814 80.8145 61.9086 79.6485 61.7715L79.6482 61.7715C78.9513 61.6897 78.2705 61.4053 77.6972 60.9097C77.4059 60.6579 77.0264 60.5322 76.6424 60.5605C76.2584 60.5888 75.9014 60.7686 75.6501 61.0604L72.1283 65.1502C72.1281 65.1504 72.128 65.1506 72.1278 65.1507C72.1278 65.1507 72.1278 65.1508 72.1278 65.1508C71.3049 66.105 70.1005 66.5295 68.9334 66.3924C68.2323 66.3099 67.5519 66.0273 66.9815 65.5342C66.6903 65.2824 66.3109 65.1568 65.927 65.185C65.5431 65.2132 65.1861 65.3929 64.9348 65.6845L61.413 69.7712L61.4125 69.7717C60.0982 71.2981 57.7931 71.4695 56.2644 70.1532L53.6338 67.8837L53.6334 67.8833L29.4986 47.0793L29.4885 47.0702C29.2462 46.8501 28.9366 46.7185 28.6099 46.6968L18.5723 46.0292L19.7164 36.2913L18.2772 36.1222L19.7164 36.2912L22.5972 11.7686L33.0953 12.4812C33.6736 12.5204 34.2197 12.2115 34.484 11.6956L37.2506 6.29521L37.2506 6.29517C38.0381 4.7578 39.7976 3.98532 41.4623 4.44599L41.4623 4.446L63.4616 10.5334L63.8483 9.13592L63.4617 10.5334C66.0285 11.2437 67.6935 13.7199 67.3827 16.3649L67.3827 16.3649L66.2171 26.2865C66.161 26.7647 66.3458 27.2396 66.7105 27.554L76.8027 36.2534L76.8031 36.2538L79.1502 38.2752L79.1504 38.2754L82.4301 41.1012L82.4305 41.1015L94.2264 51.2726Z" fill="white" stroke="#282D26" stroke-width="2.9" stroke-linecap="round" stroke-linejoin="round"/>
<path d="M29.1162 48.1174L27.717 49.9649C26.1934 51.9767 26.5892 54.8428 28.6012 56.3665C30.6131 57.89 33.4794 57.4943 35.0032 55.4825L36.4024 53.6349C37.926 51.6231 37.5302 48.7571 35.5183 47.2333C33.5063 45.7098 30.6398 46.1056 29.1162 48.1174Z" fill="white" stroke="#282D26" stroke-width="2.9"/>
<path d="M37.6386 52.0028L35.0036 55.4824C33.48 57.4944 33.8758 60.3606 35.8877 61.8845C37.8997 63.4082 40.7659 63.0124 42.2897 61.0004L44.9248 57.5208C46.4484 55.5088 46.0526 52.6425 44.0406 51.1187C42.0284 49.595 39.1622 49.9908 37.6386 52.0028Z" fill="white" stroke="#282D26" stroke-width="2.9"/>
<path d="M45.8809 56.2579L42.2897 60.9998C40.7661 63.0117 41.1619 65.8778 43.1739 67.4017C45.1858 68.9252 48.0521 68.5294 49.5759 66.5175L53.1671 61.7756C54.6907 59.7637 54.295 56.8976 52.283 55.3737C50.271 53.8502 47.4048 54.2459 45.8809 56.2579Z" fill="white" stroke="#282D26" stroke-width="2.9"/>
<path d="M53.3755 61.5016L49.5759 66.5186C48.0523 68.5306 48.4481 71.3968 50.4601 72.9207C52.472 74.4443 55.3382 74.0485 56.8621 72.0365L60.6617 67.0195C62.1853 65.0075 61.7895 62.1413 59.7776 60.6174C57.7653 59.0938 54.8991 59.4896 53.3755 61.5016Z" fill="white" stroke="#282D26" stroke-width="2.9"/>
<mask id="path-7-inside-1" fill="white">
<path d="M91.4485 9.24885L79.8763 2.7364C78.6419 2.04183 77.2253 1.73962 75.8149 1.86991L57.5428 3.5598C55.2967 3.76748 53.2896 5.0491 52.1564 6.99958L39.2778 29.166C38.3268 30.803 39.0733 32.9019 40.8443 33.5708L41.3711 33.7696C46.0918 35.5526 51.4231 34.0354 54.4975 30.0342L59.4318 23.6127C59.4318 23.6127 71.2928 37.3456 84.3516 21.308"/>
</mask>
<path d="M91.4485 9.24885L79.8763 2.7364C78.6419 2.04183 77.2253 1.73962 75.8149 1.86991L57.5428 3.5598C55.2967 3.76748 53.2896 5.0491 52.1564 6.99958L39.2778 29.166C38.3268 30.803 39.0733 32.9019 40.8443 33.5708L41.3711 33.7696C46.0918 35.5526 51.4231 34.0354 54.4975 30.0342L59.4318 23.6127C59.4318 23.6127 71.2928 37.3456 84.3516 21.308" fill="white"/>
<path d="M90.0262 11.7761C91.422 12.5616 93.1903 12.0669 93.9758 10.6711C94.7613 9.27534 94.2665 7.50706 92.8708 6.72157L90.0262 11.7761ZM79.8763 2.7364L81.2986 0.209123L81.2984 0.209042L79.8763 2.7364ZM75.8149 1.86991L75.5481 -1.0178L75.5478 -1.01777L75.8149 1.86991ZM57.5428 3.5598L57.8098 6.44748L57.8099 6.44747L57.5428 3.5598ZM52.1564 6.99958L49.6489 5.54273L49.6489 5.54273L52.1564 6.99958ZM39.2778 29.166L36.7703 27.7092L36.7703 27.7093L39.2778 29.166ZM40.8443 33.5708L39.8197 36.2837L39.8201 36.2839L40.8443 33.5708ZM41.3711 33.7696L42.3958 31.0567L42.3953 31.0565L41.3711 33.7696ZM54.4975 30.0342L52.198 28.2673L52.198 28.2673L54.4975 30.0342ZM59.4318 23.6127L61.6266 21.7171L59.3005 19.0239L57.1323 21.8457L59.4318 23.6127ZM86.6004 23.1392C87.6117 21.8972 87.4247 20.0706 86.1827 19.0593C84.9407 18.048 83.1141 18.235 82.1028 19.4769L86.6004 23.1392ZM92.8708 6.72157L81.2986 0.209123L78.454 5.26369L90.0262 11.7761L92.8708 6.72157ZM81.2984 0.209042C79.5507 -0.774389 77.545 -1.20226 75.5481 -1.0178L76.0816 4.75761C76.9057 4.68149 77.7332 4.85806 78.4542 5.26377L81.2984 0.209042ZM75.5478 -1.01777L57.2757 0.672122L57.8099 6.44747L76.0819 4.75759L75.5478 -1.01777ZM57.2758 0.672116C54.0955 0.966184 51.2535 2.78084 49.6489 5.54273L54.6639 8.45643C55.3257 7.31736 56.4979 6.56878 57.8098 6.44748L57.2758 0.672116ZM49.6489 5.54273L36.7703 27.7092L41.7853 30.6229L54.6639 8.45642L49.6489 5.54273ZM36.7703 27.7093C34.9191 30.8958 36.3722 34.9817 39.8197 36.2837L41.8689 30.8578C41.7744 30.8221 41.7346 30.7102 41.7854 30.6228L36.7703 27.7093ZM39.8201 36.2839L40.3469 36.4828L42.3953 31.0565L41.8685 30.8576L39.8201 36.2839ZM40.3465 36.4826C46.2626 38.717 52.944 36.8156 56.7971 31.8012L52.198 28.2673C49.9022 31.2551 45.921 32.3881 42.3958 31.0567L40.3465 36.4826ZM56.7971 31.8012L61.7314 25.3796L57.1323 21.8457L52.198 28.2673L56.7971 31.8012ZM59.4318 23.6127C57.2371 25.5082 57.2382 25.5095 57.2393 25.5108C57.2398 25.5113 57.2409 25.5127 57.2418 25.5137C57.2436 25.5157 57.2455 25.518 57.2477 25.5204C57.2519 25.5253 57.257 25.5311 57.2627 25.5376C57.2743 25.5507 57.2888 25.5672 57.3063 25.5867C57.3413 25.6257 57.3881 25.6772 57.4464 25.7398C57.5629 25.8649 57.726 26.0349 57.9331 26.2386C58.3462 26.6451 58.9402 27.1915 59.6944 27.7858C61.1878 28.9624 63.392 30.3918 66.1342 31.2438C68.9113 32.1067 72.2426 32.3745 75.8532 31.1893C79.4464 30.0098 83.0725 27.4717 86.6004 23.1392L82.1028 19.4769C79.1012 23.1632 76.3477 24.9225 74.0442 25.6786C71.7581 26.4291 69.6756 26.2707 67.8551 25.705C65.9997 25.1285 64.4225 24.127 63.2839 23.2299C62.7221 22.7873 62.2874 22.3861 62.0009 22.1042C61.8581 21.9638 61.7536 21.8544 61.6901 21.7862C61.6583 21.7521 61.6369 21.7284 61.6262 21.7165C61.6208 21.7105 61.6182 21.7074 61.6182 21.7075C61.6182 21.7075 61.6189 21.7083 61.6203 21.7099C61.621 21.7107 61.6219 21.7117 61.6229 21.7129C61.6234 21.7135 61.6244 21.7146 61.6246 21.7148C61.6256 21.7159 61.6266 21.7171 59.4318 23.6127Z" fill="#282D26" mask="url(#path-7-inside-1)"/>
<path d="M98.2133 3.18122L110.927 1.61628L116.625 47.9052L103.912 49.4703C103.912 49.4703 103.912 49.4704 103.912 49.4704C102.031 49.7017 100.32 48.3653 100.088 46.4852L95.2282 7.00459C95.2282 7.00456 95.2282 7.00454 95.2282 7.00452C94.9969 5.12432 96.3332 3.4128 98.2133 3.18123C98.2133 3.18122 98.2133 3.18122 98.2133 3.18122Z" fill="#8DCDD1" stroke="#282D26" stroke-width="2.9" stroke-linejoin="round"/>
<path d="M1.6163 48.062L7.31455 1.77377L20.0285 3.3389C21.9086 3.57043 23.245 5.28195 23.0136 7.16209C23.0136 7.16211 23.0136 7.16214 23.0136 7.16216L18.1536 46.642C17.922 48.5221 16.2105 49.8584 14.3303 49.6271C14.3303 49.6271 14.3302 49.6271 14.3302 49.6271L1.6163 48.062Z" fill="#8DCDD1" stroke="#282D26" stroke-width="2.9"/>
</svg>
