<svg width="83" height="88" viewBox="0 0 83 88" fill="none" xmlns="http://www.w3.org/2000/svg">
<path d="M17.986 82.189V20.19H80.9555V82.189C80.9555 84.5516 79.0404 86.4668 76.6778 86.4668H22.2637C19.9012 86.4668 17.986 84.5516 17.986 82.189Z" fill="white" stroke="#282D26" stroke-width="2.9"/>
<path d="M37.0217 68.7991L14.6692 46.4468L6.56885 54.5471L28.9214 76.8994C29.1807 77.1587 29.5324 77.3044 29.8993 77.3044H31.1338L37.4268 71.0115V69.7769C37.4268 69.4104 37.281 69.0586 37.0217 68.7991Z" fill="#8DCDD1" stroke="#282D26" stroke-width="2.9" stroke-linejoin="round"/>
<path d="M37.4264 75.9215V69.7768C37.4264 69.6098 37.3948 69.4465 37.3374 69.293L29.4149 77.2154C29.5684 77.2728 29.7318 77.3044 29.8988 77.3044H36.0434C36.8072 77.3044 37.4264 76.6854 37.4264 75.9215Z" fill="white" stroke="#282D26" stroke-width="2.9" stroke-linejoin="round"/>
<path d="M7.10099 42.9286L3.05077 46.9787C1.93229 48.0972 1.93229 49.9105 3.05077 51.0289L7.10099 55.0791L15.2014 46.9787L11.1512 42.9286C10.0327 41.8103 8.21947 41.8103 7.10099 42.9286Z" fill="#8DCDD1" stroke="#282D26" stroke-width="2.9"/>
<path d="M22.2634 9.17827H76.6776C79.0402 9.17827 80.9553 11.0934 80.9552 13.4556V20.5974H17.9856V13.4558C17.9856 11.0934 19.9008 9.17827 22.2634 9.17827Z" fill="#8DCDD1" stroke="#282D26" stroke-width="2.9"/>
<path d="M25.1273 10.5918C25.1273 12.1736 26.4095 13.4558 27.9913 13.4558C29.573 13.4558 30.8552 12.1736 30.8552 10.5918V4.864C30.8552 3.2822 29.573 2 27.9913 2C26.4095 2 25.1273 3.2822 25.1273 4.864V10.5918Z" fill="#C1CB8F" stroke="#282D26" stroke-width="2.9"/>
<path d="M68.0856 10.5919C68.0856 12.1737 69.3678 13.4558 70.9495 13.4558C72.5313 13.4558 73.8135 12.1737 73.8135 10.5919V4.86436C73.8135 3.28264 72.5313 2.00049 70.9495 2.00049C69.3678 2.00049 68.0856 3.28264 68.0856 4.86436V10.5919Z" fill="#C1CB8F" stroke="#282D26" stroke-width="2.9"/>
<path d="M39.4465 10.5919C39.4465 12.1737 40.7287 13.4558 42.3105 13.4558C43.8923 13.4558 45.1744 12.1737 45.1744 10.5919V4.86436C45.1744 3.28264 43.8923 2.00049 42.3105 2.00049C40.7287 2.00049 39.4465 3.28264 39.4465 4.86436V10.5919Z" fill="#C1CB8F" stroke="#282D26" stroke-width="2.9"/>
<path d="M53.7666 10.5919C53.7666 12.1737 55.0488 13.4558 56.6305 13.4558C58.2122 13.4558 59.4944 12.1737 59.4944 10.5919V4.86436C59.4944 3.28264 58.2122 2.00049 56.6305 2.00049C55.0488 2.00049 53.7666 3.28264 53.7666 4.86436V10.5919Z" fill="#C1CB8F" stroke="#282D26" stroke-width="2.9"/>
<path d="M26.5593 31.9351H72.3815C73.0975 31.9351 73.678 31.3547 73.678 30.6388C73.678 29.9229 73.0975 29.3425 72.3815 29.3425H26.5593C25.8433 29.3425 25.2628 29.9229 25.2628 30.6388C25.2628 31.3547 25.8433 31.9351 26.5593 31.9351Z" fill="#282D26"/>
<path d="M26.5593 40.5269H72.3815C73.0975 40.5269 73.678 39.9463 73.678 39.2302C73.678 38.5141 73.0975 37.9336 72.3815 37.9336H26.5593C25.8433 37.9336 25.2628 38.5141 25.2628 39.2302C25.2628 39.9463 25.8433 40.5269 26.5593 40.5269Z" fill="#282D26"/>
<path d="M26.5593 49.1196H72.3815C73.0975 49.1196 73.678 48.5391 73.678 47.823C73.678 47.1069 73.0975 46.5264 72.3815 46.5264H26.5593C25.8433 46.5264 25.2628 47.1069 25.2628 47.823C25.2628 48.5391 25.8433 49.1196 26.5593 49.1196Z" fill="#282D26"/>
<path d="M73.6782 65.0055C73.6782 64.2895 73.0977 63.709 72.3817 63.709H42.3109C41.5949 63.709 41.0144 64.2895 41.0144 65.0055C41.0144 65.7215 41.5949 66.302 42.3109 66.302H72.3817C73.0977 66.302 73.6782 65.7215 73.6782 65.0055Z" fill="#282D26"/>
</svg>
