<svg width="92" height="93" viewBox="0 0 92 93" fill="none" xmlns="http://www.w3.org/2000/svg">
<path d="M31.9364 1.45H87.3873C88.7448 1.45 89.8981 2.58309 89.8981 4.04696V35.6129C89.8981 37.0768 88.7448 38.2099 87.3873 38.2099H31.9364C30.5789 38.2099 29.4256 37.0768 29.4256 35.6129V4.04696C29.4256 2.58314 30.5791 1.45 31.9364 1.45Z" fill="#8DCDD1" stroke="#282D26" stroke-width="2.9" stroke-linejoin="round"/>
<path d="M33.6109 1.45H85.8517L59.6907 21.1827L33.6109 1.45Z" fill="#8DCDD1" stroke="#282D26" stroke-width="2.9" stroke-linejoin="round"/>
<path d="M51.8398 84.1219L49.5743 86.4366C43.981 92.1516 34.9257 92.1516 29.3324 86.4365L28.2961 87.4507L29.3324 86.4365L5.65767 62.2469C5.65767 62.2469 5.65766 62.2469 5.65766 62.2469C0.0474352 56.5145 0.0474612 47.2079 5.65766 41.4757L7.92315 39.1609C9.37434 37.6782 11.7143 37.6782 13.1655 39.1609L22.6341 48.8355C24.1024 50.3357 24.1024 52.7809 22.6341 54.281L22.0171 54.9115C19.9054 57.0691 19.9054 60.5544 22.0171 62.712L28.79 69.6322C30.9188 71.8073 34.3831 71.8073 36.5118 69.6322L37.1288 69.0018C38.58 67.519 40.92 67.519 42.3712 69.0018L51.8398 78.6763C53.308 80.1765 53.308 82.6217 51.8398 84.1219Z" fill="white" stroke="black" stroke-width="2.9"/>
<path d="M25.2119 6H9.21191V33" stroke="black" stroke-width="2.9" stroke-linecap="round" stroke-linejoin="round" stroke-dasharray="2 8"/>
<path d="M56.2119 80L83.2119 80L83.2119 40" stroke="black" stroke-width="2.9" stroke-linecap="round" stroke-linejoin="round" stroke-dasharray="2 8"/>
</svg>
