<svg width="105" height="90" viewBox="0 0 105 90" fill="none" xmlns="http://www.w3.org/2000/svg">
<path d="M95.0875 34.3453C94.8242 34.6858 94.7257 35.1256 94.8188 35.5459C94.9119 35.9661 95.1868 36.3233 95.5693 36.5208C100.03 38.824 103.076 43.471 103.076 48.8295C103.076 56.4769 96.8767 62.6761 89.2293 62.6761C87.5273 62.6761 85.9003 62.3679 84.3967 61.8078C83.8923 61.6198 83.3252 61.7268 82.924 62.0856C82.5227 62.4444 82.3532 62.996 82.4838 63.5182L86.968 81.4546C87.3318 82.9096 86.7406 84.4379 85.4917 85.2704C83.7141 86.4554 81.2995 85.8146 80.3451 83.9057L70.131 63.4773C69.9097 63.0347 69.478 62.7355 68.9859 62.6837L32.4589 58.8388C32.1042 58.8014 31.7483 58.8961 31.459 59.1046C28.345 61.3499 24.5276 62.6758 20.3953 62.6758C9.93217 62.6758 1.45 54.1936 1.45 43.7305C1.45 35.7737 6.35859 28.963 13.3176 26.157C13.8408 25.946 14.1942 25.4507 14.2234 24.8872C14.7412 14.8883 23.0138 6.93912 33.1423 6.93912C37.172 6.93912 40.9022 8.19984 43.9729 10.3444C44.3229 10.5889 44.7628 10.6667 45.1754 10.5571C45.588 10.4474 45.9314 10.1616 46.1139 9.77564C48.3337 5.08248 53.1074 1.84038 58.6366 1.84038C65.929 1.84038 71.9022 7.48032 72.4389 14.6364C72.4802 15.1882 72.8321 15.6684 73.3459 15.8741C73.8596 16.0797 74.4457 15.9751 74.8564 15.6042C77.3126 13.3868 80.5623 12.0382 84.1306 12.0382C91.778 12.0382 97.9771 18.2374 97.9771 25.8847C97.9771 29.0725 96.8984 32.0039 95.0875 34.3453Z" fill="#8DCDD1" stroke="#282D26" stroke-width="2.9" stroke-linejoin="round"/>
<path d="M34.1579 43.1315L31.1898 40.1634C30.5845 39.5581 30.5845 38.5767 31.1898 37.9714L49.8908 19.2704C50.4961 18.6651 51.4775 18.6651 52.0828 19.2704L55.0508 22.2384C55.6562 22.8438 55.6562 23.8252 55.0508 24.4305L36.3499 43.1315C35.7446 43.7368 34.7632 43.7368 34.1579 43.1315Z" fill="white" stroke="#282D26" stroke-width="2.9" stroke-linejoin="round"/>
<path d="M55.1784 40.0345L52.2103 43.0026C51.605 43.6079 50.6236 43.6079 50.0183 43.0026L31.3172 24.3014C30.7119 23.6961 30.7119 22.7147 31.3172 22.1094L34.2853 19.1413C34.8906 18.536 35.872 18.536 36.4773 19.1413L55.1784 37.8425C55.7837 38.4478 55.7837 39.4292 55.1784 40.0345Z" fill="white" stroke="#282D26" stroke-width="2.9" stroke-linejoin="round"/>
</svg>
