<svg width="65" height="86" viewBox="0 0 65 86" fill="none" xmlns="http://www.w3.org/2000/svg">
<path d="M20.0119 76.4206C13.7459 70.637 10.5687 65.544 10.5687 61.2829C10.5687 60.7343 10.5912 60.1836 10.6357 59.6461C10.6498 59.5073 10.6796 59.3016 10.714 59.0643C10.8127 58.3831 10.962 57.3538 10.9827 56.2197C10.9829 56.2122 10.9829 56.2048 10.9829 56.1973C10.9829 54.361 10.5771 52.1801 10.1474 49.871C9.51905 46.4947 8.78827 42.567 9.15334 38.6635L11.6424 40.5145C11.8604 40.6766 12.1147 40.7547 12.367 40.7547C12.7384 40.7547 13.1049 40.5852 13.3435 40.2643C13.7443 39.7255 13.6323 38.9639 13.0934 38.5632L9.59784 35.9639C9.84635 34.9395 10.1915 33.9262 10.6558 32.9345C10.9404 32.3265 10.6783 31.6026 10.0702 31.3178C9.46232 31.0332 8.7385 31.2953 8.45351 31.9034C8.06623 32.7306 7.75125 33.5651 7.49869 34.4028L4.86328 32.4427V15.8939C6.27849 15.392 7.29491 14.0398 7.29491 12.4545C7.29491 10.4432 5.65875 8.80688 3.64746 8.80688C1.63617 8.80688 0 10.4432 0 12.4545C0 14.0398 1.01642 15.392 2.43164 15.8939V33.0537C2.43164 33.4382 2.61352 33.7999 2.92186 34.0294L6.90618 36.9923C6.41353 40.0565 6.61244 43.1097 7.01479 45.9617C3.16988 46.5041 0.500107 49.3978 0.500107 53.2391C0.500107 57.3028 3.80616 60.6087 7.86959 60.6087C7.96232 60.6087 8.05488 60.6069 8.14729 60.6035C8.14048 60.8298 8.13707 61.0564 8.13707 61.2827C8.13707 66.2503 11.5775 71.9445 18.3628 78.2074C18.5965 78.4231 18.8922 78.5298 19.1871 78.5298C19.5147 78.5298 19.8412 78.3981 20.0808 78.1386C20.5362 77.6451 20.5054 76.8759 20.0119 76.4206ZM3.64746 11.2385C4.31794 11.2385 4.86328 11.784 4.86328 12.4545C4.86328 13.125 4.31794 13.6705 3.64746 13.6705C2.97697 13.6705 2.43164 13.125 2.43164 12.4545C2.43164 11.784 2.97697 11.2385 3.64746 11.2385ZM2.93174 53.2391C2.93174 50.6284 4.72662 48.7247 7.40045 48.3635C7.51798 49.0306 7.63924 49.6821 7.75709 50.3157C8.16463 52.5062 8.5498 54.5756 8.55159 56.186C8.53764 56.9056 8.4634 57.5819 8.38737 58.1501C8.21602 58.1679 8.04321 58.177 7.86975 58.177C5.14681 58.177 2.93174 55.9619 2.93174 53.2391Z" fill="#282D26"/>
<path d="M57.9772 45.9613C58.3844 43.0758 58.5831 39.9844 58.0681 36.8839L61.907 34.0291C62.2155 33.7996 62.3972 33.4379 62.3972 33.0534V15.8938C63.8124 15.3919 64.8289 14.0398 64.8289 12.4545C64.8289 10.4432 63.1927 8.80688 61.1814 8.80688C59.1701 8.80688 57.534 10.4432 57.534 12.4545C57.534 14.0398 58.5504 15.3919 59.9656 15.8938V32.4426L57.4631 34.3034C57.2157 33.4989 56.9103 32.6976 56.5383 31.9027C56.2536 31.2947 55.53 31.0325 54.9216 31.3172C54.3135 31.602 54.0512 32.3258 54.336 32.9339C54.7847 33.8925 55.1223 34.8713 55.3688 35.8608L51.7353 38.5627C51.1965 38.9634 51.0844 39.725 51.4852 40.2638C51.7238 40.5847 52.0903 40.7542 52.4617 40.7542C52.714 40.7542 52.9683 40.6761 53.1864 40.514L55.8278 38.5499C56.2179 42.4906 55.4789 46.4618 54.8446 49.8706C54.4148 52.1797 54.0091 54.3605 54.0091 56.1969C54.0091 56.2044 54.0091 56.2118 54.0092 56.2193C54.03 57.3536 54.1793 58.3828 54.278 59.064C54.3124 59.3015 54.3422 59.5073 54.3563 59.6461C54.4007 60.1828 54.4232 60.7334 54.4232 61.2824C54.4232 66.4082 49.8808 72.6758 40.9202 79.9128C38.5547 81.832 35.5776 82.8877 32.5273 82.8877C32.516 82.8877 32.5045 82.8877 32.4931 82.8877C29.4359 82.889 26.4465 81.8392 24.0722 79.9128C23.5509 79.4899 22.7851 79.5695 22.3621 80.091C21.939 80.6123 22.0188 81.378 22.5403 81.8011C25.3375 84.0708 28.8585 85.3193 32.4526 85.3193H32.5335C36.1336 85.3192 39.6549 84.0706 42.4502 81.8029C52.0085 74.0831 56.855 67.1792 56.855 61.2824C56.855 61.0561 56.8516 60.8293 56.8448 60.6032C56.9372 60.6066 57.03 60.6084 57.1227 60.6084C61.1863 60.6084 64.4922 57.3025 64.4922 53.2389C64.492 49.3976 61.8222 46.5039 57.9772 45.9613ZM61.1814 11.2385C61.8519 11.2385 62.3972 11.784 62.3972 12.4545C62.3972 13.125 61.8519 13.6705 61.1814 13.6705C60.5109 13.6705 59.9656 13.125 59.9656 12.4545C59.9656 11.784 60.5111 11.2385 61.1814 11.2385ZM57.1225 58.1768C56.9491 58.1768 56.7763 58.1677 56.6049 58.1498C56.5289 57.5816 56.4546 56.9057 56.4407 56.1861C56.4425 54.5757 56.8275 52.5062 57.2352 50.3154C57.353 49.6819 57.4743 49.0304 57.5918 48.3633C60.2657 48.7247 62.0604 50.6283 62.0604 53.2389C62.0604 55.9617 59.8453 58.1768 57.1225 58.1768Z" fill="#282D26"/>
<path d="M31.351 64.015C31.351 63.4285 31.8282 62.9513 32.4147 62.9513C33.0012 62.9513 33.4785 63.4283 33.4785 64.015C33.4785 64.6864 34.0229 65.2307 34.6943 65.2307C35.3658 65.2307 35.9102 64.6864 35.9102 64.015C35.9102 62.0878 34.3421 60.5198 32.4147 60.5198C30.4874 60.5198 28.9193 62.0876 28.9193 64.015C28.9193 64.6864 29.4637 65.2307 30.1351 65.2307C30.8066 65.2307 31.351 64.6864 31.351 64.015Z" fill="#282D26"/>
<path d="M27.2198 55.9011C27.443 56.2978 27.8556 56.5209 28.2805 56.5209C28.4824 56.5209 28.6872 56.4704 28.8756 56.3644C29.4608 56.035 29.6681 55.2938 29.3389 54.7086C28.1574 52.6093 25.9279 51.3051 23.5205 51.3051C21.113 51.3051 18.8835 52.6091 17.7021 54.7084C17.3729 55.2937 17.5802 56.035 18.1652 56.3644C18.7503 56.6937 19.4918 56.4863 19.8212 55.9013C20.5725 54.5663 21.99 53.7367 23.5205 53.7367C25.0509 53.7367 26.4686 54.5659 27.2198 55.9011Z" fill="#282D26"/>
<path d="M45.0079 55.9015C45.3374 56.4866 46.0787 56.6939 46.6639 56.3647C47.249 56.0353 47.4565 55.2939 47.127 54.7087C45.9454 52.6094 43.7159 51.3054 41.3086 51.3054C38.9012 51.3054 36.6716 52.6094 35.4901 54.7089C35.1609 55.2941 35.3682 56.0354 35.9534 56.3647C36.142 56.4707 36.3466 56.5211 36.5485 56.5211C36.9734 56.5211 37.386 56.298 37.6092 55.9014C38.3606 54.5664 39.7779 53.7371 41.3084 53.7371C42.8389 53.7371 44.2567 54.5666 45.0079 55.9015Z" fill="#282D26"/>
<path d="M26 74.3193H37.9999" stroke="#282D26" stroke-width="2" stroke-linecap="round"/>
<path d="M13.999 5.48975C13.999 3.28061 15.7899 1.48975 17.999 1.48975H46.8297C49.0389 1.48975 50.8297 3.28061 50.8297 5.48975V29.9046C50.8297 32.1137 49.0389 33.9046 46.8297 33.9046H25.5356H20.294H17.999C15.7899 33.9046 13.999 32.1137 13.999 29.9046V5.48975Z" fill="white" stroke="#282D26" stroke-width="2"/>
<path d="M26.076 23.5318L25.7255 22.6488L24.8492 23.0157L19.9166 25.081C18.9232 25.497 18.44 26.6456 18.8374 27.6466L19.1683 28.48C19.5656 29.481 20.6931 29.9553 21.6865 29.5393L26.6191 27.474L27.4954 27.1071L27.1449 26.2241L26.076 23.5318Z" fill="#8DCDD1" stroke="#282D26" stroke-width="1.9"/>
<path d="M24.8487 23.0146L23.9724 23.3815L24.3229 24.2645L25.3917 26.9568L25.7423 27.8398L26.6186 27.4729L42.4695 20.8361C43.4629 20.4201 43.946 19.2715 43.5487 18.2705L43.2178 17.437C42.8204 16.4361 41.693 15.9618 40.6996 16.3778L24.8487 23.0146Z" fill="#8DCDD1" stroke="#282D26" stroke-width="1.9"/>
<path d="M42.5116 4.92383C42.0179 5.41739 41.3268 6.9643 42.5116 8.87349C43.6965 10.7827 42.6213 12.3844 41.9356 12.9878" stroke="#282D26" stroke-width="1.9" stroke-linecap="round"/>
<path d="M46.4276 8.52295C45.9339 9.01652 45.2428 10.5634 46.4277 12.4726C47.6125 14.3818 46.5373 15.9835 45.8516 16.5869" stroke="#282D26" stroke-width="1.9" stroke-linecap="round"/>
</svg>
