<svg width="65" height="86" viewBox="0 0 65 86" fill="none" xmlns="http://www.w3.org/2000/svg">
<path d="M20.0119 76.6264C13.7459 70.8428 10.5687 65.7498 10.5687 61.4887C10.5687 60.9402 10.5912 60.3895 10.6357 59.8519C10.6498 59.7131 10.6796 59.5074 10.714 59.2701C10.8127 58.5889 10.962 57.5597 10.9827 56.4256C10.9829 56.4181 10.9829 56.4106 10.9829 56.4032C10.9829 54.5668 10.5771 52.3859 10.1474 50.0769C9.51905 46.7006 8.78827 42.7728 9.15334 38.8694L11.6424 40.7204C11.8604 40.8825 12.1147 40.9606 12.367 40.9606C12.7384 40.9606 13.1049 40.791 13.3435 40.4702C13.7443 39.9314 13.6323 39.1698 13.0934 38.769L9.59784 36.1698C9.84635 35.1454 10.1915 34.1321 10.6558 33.1404C10.9404 32.5324 10.6783 31.8085 10.0702 31.5237C9.46232 31.239 8.7385 31.5012 8.45351 32.1092C8.06623 32.9365 7.75125 33.771 7.49869 34.6087L4.86328 32.6486V16.0998C6.27849 15.5979 7.29491 14.2457 7.29491 12.6604C7.29491 10.6492 5.65875 9.01282 3.64746 9.01282C1.63617 9.01282 0 10.6492 0 12.6604C0 14.2457 1.01642 15.5979 2.43164 16.0998V33.2596C2.43164 33.6441 2.61352 34.0058 2.92186 34.2353L6.90618 37.1982C6.41353 40.2624 6.61244 43.3156 7.01479 46.1676C3.16988 46.71 0.500107 49.6036 0.500107 53.445C0.500107 57.5086 3.80616 60.8145 7.86959 60.8145C7.96232 60.8145 8.05488 60.8127 8.14729 60.8093C8.14048 61.0356 8.13707 61.2623 8.13707 61.4886C8.13707 66.4561 11.5775 72.1504 18.3628 78.4132C18.5965 78.6289 18.8922 78.7356 19.1871 78.7356C19.5147 78.7356 19.8412 78.604 20.0808 78.3444C20.5362 77.851 20.5054 77.0817 20.0119 76.6264ZM3.64746 11.4445C4.31794 11.4445 4.86328 11.99 4.86328 12.6604C4.86328 13.3309 4.31794 13.8764 3.64746 13.8764C2.97697 13.8764 2.43164 13.3309 2.43164 12.6604C2.43164 11.99 2.97697 11.4445 3.64746 11.4445ZM2.93174 53.445C2.93174 50.8342 4.72662 48.9306 7.40045 48.5694C7.51798 49.2365 7.63924 49.888 7.75709 50.5215C8.16463 52.7121 8.5498 54.7814 8.55159 56.3918C8.53764 57.1114 8.4634 57.7878 8.38737 58.356C8.21602 58.3738 8.04321 58.3829 7.86975 58.3829C5.14681 58.3829 2.93174 56.1678 2.93174 53.445Z" fill="#282D26"/>
<path d="M57.9772 46.1673C58.3844 43.2817 58.5831 40.1903 58.0681 37.0898L61.907 34.2351C62.2155 34.0055 62.3972 33.6438 62.3972 33.2593V16.0997C63.8124 15.5979 64.8289 14.2457 64.8289 12.6604C64.8289 10.6491 63.1927 9.01282 61.1814 9.01282C59.1701 9.01282 57.534 10.6491 57.534 12.6604C57.534 14.2457 58.5504 15.5979 59.9656 16.0997V32.6485L57.4631 34.5093C57.2157 33.7048 56.9103 32.9035 56.5383 32.1087C56.2536 31.5006 55.53 31.2385 54.9216 31.5231C54.3135 31.808 54.0512 32.5318 54.336 33.1399C54.7847 34.0984 55.1223 35.0772 55.3688 36.0667L51.7353 38.7686C51.1965 39.1693 51.0844 39.9309 51.4852 40.4698C51.7238 40.7906 52.0903 40.9602 52.4617 40.9602C52.714 40.9602 52.9683 40.882 53.1864 40.7199L55.8278 38.7558C56.2179 42.6965 55.4789 46.6677 54.8446 50.0765C54.4148 52.3856 54.0091 54.5665 54.0091 56.4028C54.0091 56.4103 54.0091 56.4178 54.0092 56.4252C54.03 57.5595 54.1793 58.5887 54.278 59.2699C54.3124 59.5074 54.3422 59.7133 54.3563 59.852C54.4007 60.3888 54.4232 60.9393 54.4232 61.4884C54.4232 66.6141 49.8808 72.8817 40.9202 80.1188C38.5547 82.038 35.5776 83.0936 32.5273 83.0936C32.516 83.0936 32.5045 83.0936 32.4931 83.0936C29.4359 83.0949 26.4465 82.0451 24.0722 80.1188C23.5509 79.6958 22.7851 79.7754 22.3621 80.2969C21.939 80.8183 22.0188 81.5839 22.5403 82.007C25.3375 84.2767 28.8585 85.5253 32.4526 85.5253H32.5335C36.1336 85.5251 39.6549 84.2765 42.4502 82.0088C52.0085 74.289 56.855 67.3851 56.855 61.4884C56.855 61.2621 56.8516 61.0353 56.8448 60.8091C56.9372 60.8125 57.03 60.8143 57.1227 60.8143C61.1863 60.8143 64.4922 57.5084 64.4922 53.4448C64.492 49.6035 61.8222 46.7099 57.9772 46.1673ZM61.1814 11.4445C61.8519 11.4445 62.3972 11.99 62.3972 12.6604C62.3972 13.3309 61.8519 13.8764 61.1814 13.8764C60.5109 13.8764 59.9656 13.3309 59.9656 12.6604C59.9656 11.99 60.5111 11.4445 61.1814 11.4445ZM57.1225 58.3827C56.9491 58.3827 56.7763 58.3736 56.6049 58.3558C56.5289 57.7876 56.4546 57.1116 56.4407 56.392C56.4425 54.7816 56.8275 52.7121 57.2352 50.5214C57.353 49.8878 57.4743 49.2363 57.5918 48.5692C60.2657 48.9306 62.0604 50.8342 62.0604 53.4448C62.0604 56.1676 59.8453 58.3827 57.1225 58.3827Z" fill="#282D26"/>
<path d="M31.351 64.2211C31.351 63.6346 31.8282 63.1573 32.4147 63.1573C33.0012 63.1573 33.4785 63.6344 33.4785 64.2211C33.4785 64.8926 34.0229 65.437 34.6943 65.437C35.3658 65.437 35.9102 64.8926 35.9102 64.2211C35.9102 62.2937 34.3421 60.7256 32.4147 60.7256C30.4874 60.7256 28.9193 62.2936 28.9193 64.2211C28.9193 64.8926 29.4637 65.437 30.1351 65.437C30.8066 65.437 31.351 64.8926 31.351 64.2211Z" fill="#282D26"/>
<path d="M27.2198 56.1067C27.443 56.5034 27.8556 56.7264 28.2805 56.7264C28.4824 56.7264 28.6872 56.676 28.8756 56.57C29.4608 56.2406 29.6681 55.4995 29.3389 54.9143C28.1574 52.815 25.9279 51.5109 23.5205 51.5109C21.113 51.5109 18.8835 52.8148 17.7021 54.9141C17.3729 55.4993 17.5802 56.2406 18.1652 56.57C18.7503 56.8992 19.4918 56.6919 19.8212 56.1069C20.5725 54.7719 21.99 53.9424 23.5205 53.9424C25.0509 53.9424 26.4686 54.7716 27.2198 56.1067Z" fill="#282D26"/>
<path d="M45.0079 56.1074C45.3374 56.6924 46.0787 56.8998 46.6639 56.5705C47.249 56.2411 47.4565 55.4998 47.127 54.9146C45.9454 52.8153 43.7159 51.5114 41.3086 51.5114C38.9012 51.5114 36.6716 52.8153 35.4901 54.9148C35.1609 55.5 35.3682 56.2413 35.9534 56.5705C36.142 56.6766 36.3466 56.727 36.5485 56.727C36.9734 56.727 37.386 56.5039 37.6092 56.1072C38.3606 54.7723 39.7779 53.943 41.3084 53.943C42.8389 53.943 44.2567 54.7725 45.0079 56.1074Z" fill="#282D26"/>
<path d="M26 74.5251H37.9999" stroke="#282D26" stroke-width="2" stroke-linecap="round"/>
<path d="M14.0928 5.47461C14.0928 3.26547 15.8836 1.47461 18.0928 1.47461H46.9235C49.1326 1.47461 50.9235 3.26547 50.9235 5.47461V29.8895C50.9235 32.0986 49.1326 33.8895 46.9235 33.8895H25.6293H20.3877H18.0928C15.8836 33.8895 14.0928 32.0986 14.0928 29.8895V5.47461Z" fill="white" stroke="#282D26" stroke-width="2"/>
<mask id="path-8-inside-1" fill="white">
<path d="M31.5359 6.51153C32.6857 5.34646 34.6285 4.32153 36.3947 4.32153C39.8964 4.32153 42.7352 7.1602 42.7352 10.662C42.7352 11.0928 42.6922 11.5134 42.6104 11.92H42.7516C44.7273 11.92 46.3289 13.5216 46.3289 15.4973C46.3289 17.4731 44.7272 19.0746 42.7516 19.0746H33.3316"/>
</mask>
<path d="M31.5359 6.51153C32.6857 5.34646 34.6285 4.32153 36.3947 4.32153C39.8964 4.32153 42.7352 7.1602 42.7352 10.662C42.7352 11.0928 42.6922 11.5134 42.6104 11.92H42.7516C44.7273 11.92 46.3289 13.5216 46.3289 15.4973C46.3289 17.4731 44.7272 19.0746 42.7516 19.0746H33.3316" fill="#8DCDD1"/>
<path d="M42.6104 11.92L40.7477 11.5453L40.2902 13.82H42.6104V11.92ZM32.8883 7.84611C33.7736 6.94899 35.255 6.22153 36.3947 6.22153V2.42153C34.002 2.42153 31.5978 3.74393 30.1836 5.17694L32.8883 7.84611ZM36.3947 6.22153C38.8471 6.22153 40.8352 8.20956 40.8352 10.662H44.6352C44.6352 6.11085 40.9457 2.42153 36.3947 2.42153V6.22153ZM40.8352 10.662C40.8352 10.966 40.8049 11.2611 40.7477 11.5453L44.4731 12.2946C44.5795 11.7656 44.6352 11.2195 44.6352 10.662H40.8352ZM42.6104 13.82H42.7516V10.02H42.6104V13.82ZM42.7516 13.82C43.6779 13.82 44.4289 14.5709 44.4289 15.4973H48.2289C48.2289 12.4724 45.7768 10.02 42.7516 10.02V13.82ZM44.4289 15.4973C44.4289 16.4237 43.6779 17.1746 42.7516 17.1746V20.9746C45.7765 20.9746 48.2289 18.5224 48.2289 15.4973H44.4289ZM42.7516 17.1746H33.3316V20.9746H42.7516V17.1746Z" fill="#282D26" mask="url(#path-8-inside-1)"/>
<path d="M23.3144 11.8297H24.1648L24.2586 10.9846C24.522 8.61302 26.5345 6.76824 28.9767 6.76824C31.5985 6.76824 33.724 8.89363 33.724 11.5156C33.724 11.8391 33.6917 12.1544 33.6305 12.4586L33.4018 13.5959H34.5619H34.6888C35.9394 13.5959 36.9532 14.6097 36.9532 15.8603C36.9532 17.1109 35.9394 18.1247 34.6888 18.1247H22.785C21.0466 18.1247 19.6375 16.7156 19.6375 14.9772C19.6375 13.2388 21.0467 11.8297 22.7849 11.8297H23.3144Z" fill="#8DCDD1" stroke="#282D26" stroke-width="1.9"/>
<path d="M33.7136 27.6679C33.7136 28.4165 33.1068 29.0233 32.3582 29.0233C31.6097 29.0233 31.0029 28.4165 31.0029 27.6679C31.0029 27.5904 31.0537 27.3686 31.2536 26.989C31.4381 26.6388 31.6949 26.2547 31.9682 25.8867C32.1004 25.7087 32.233 25.5391 32.3582 25.3841C32.4834 25.5391 32.6161 25.7087 32.7483 25.8867C33.0216 26.2547 33.2784 26.6388 33.4629 26.989C33.6628 27.3686 33.7136 27.5904 33.7136 27.6679Z" fill="#C1CB8F" stroke="#282D26" stroke-width="1.9"/>
<path d="M42.4324 28.9438C42.4324 29.6924 41.8256 30.2991 41.077 30.2991C40.3284 30.2991 39.7217 29.6924 39.7217 28.9438C39.7217 28.8663 39.7725 28.6445 39.9724 28.265C40.1569 27.9148 40.4137 27.5306 40.687 27.1627C40.8191 26.9847 40.9518 26.815 41.077 26.6601C41.2022 26.815 41.3349 26.9847 41.4671 27.1627C41.7404 27.5306 41.9972 27.9148 42.1816 28.265C42.3816 28.6445 42.4324 28.8663 42.4324 28.9438Z" fill="#C1CB8F" stroke="#282D26" stroke-width="1.9"/>
<path d="M24.9939 28.9438C24.9939 29.6924 24.3871 30.2991 23.6385 30.2991C22.89 30.2991 22.2832 29.6924 22.2832 28.9438C22.2832 28.8663 22.334 28.6445 22.5339 28.265C22.7184 27.9148 22.9752 27.5306 23.2485 27.1627C23.3807 26.9847 23.5133 26.815 23.6385 26.6601C23.7637 26.815 23.8964 26.9847 24.0286 27.1627C24.3019 27.5306 24.5587 27.9148 24.7432 28.265C24.9431 28.6445 24.9939 28.8663 24.9939 28.9438Z" fill="#C1CB8F" stroke="#282D26" stroke-width="1.9"/>
</svg>
