<svg width="65" height="87" viewBox="0 0 65 87" fill="none" xmlns="http://www.w3.org/2000/svg">
<path d="M32.4149 39.4424C42.8287 39.4424 51.2708 31.0003 51.2708 20.5865C51.2708 10.1728 42.8287 1.73071 32.4149 1.73071C22.0011 1.73071 13.5591 10.1728 13.5591 20.5865C13.5591 31.0003 22.0011 39.4424 32.4149 39.4424Z" fill="white" stroke="#282D26" stroke-width="2.5"/>
<path d="M41.9878 17.1038H35.8974V11.0134H28.9321V17.1038H22.8417V24.0694H28.9321V30.1598H35.8974V24.0694H41.9878V17.1038Z" fill="#8DCDD1" stroke="#282D26" stroke-width="1.9"/>
<path d="M20.012 77.1781C13.7459 71.3946 10.5687 66.3015 10.5687 62.0405C10.5687 61.4919 10.5913 60.9412 10.6357 60.4037C10.6498 60.2649 10.6796 60.0592 10.714 59.8219C10.8127 59.1407 10.962 58.1114 10.9828 56.9773C10.9829 56.9699 10.9829 56.9624 10.9829 56.9549C10.9829 55.1186 10.5772 52.9377 10.1474 50.6286C9.51908 47.2523 8.78829 43.3246 9.15336 39.4212L11.6424 41.2721C11.8604 41.4342 12.1148 41.5124 12.367 41.5124C12.7384 41.5124 13.1049 41.3428 13.3436 41.022C13.7443 40.4831 13.6323 39.7215 13.0934 39.3208L9.59787 36.7215C9.84638 35.6972 10.1915 34.6838 10.6558 33.6922C10.9405 33.0841 10.6783 32.3603 10.0703 32.0755C9.46234 31.7908 8.73852 32.0529 8.45354 32.661C8.06626 33.4883 7.75128 34.3228 7.49871 35.1604L4.86329 33.2003V16.6515C6.27851 16.1496 7.29494 14.7975 7.29494 13.2122C7.29494 11.2009 5.65876 9.56458 3.64747 9.56458C1.63617 9.56458 0 11.2009 0 13.2122C0 14.7975 1.01643 16.1496 2.43165 16.6515V33.8113C2.43165 34.1959 2.61353 34.5575 2.92187 34.7871L6.9062 37.75C6.41355 40.8142 6.61246 43.8673 7.01481 46.7193C3.16989 47.2617 0.500108 50.1554 0.500108 53.9968C0.500108 58.0604 3.80617 61.3663 7.86962 61.3663C7.96234 61.3663 8.05491 61.3645 8.14731 61.3611C8.1405 61.5874 8.1371 61.814 8.1371 62.0403C8.1371 67.0079 11.5776 72.7021 18.3628 78.9649C18.5966 79.1807 18.8923 79.2874 19.1871 79.2874C19.5148 79.2874 19.8413 79.1557 20.0809 78.8962C20.5362 78.4027 20.5054 77.6335 20.012 77.1781ZM3.64747 11.9962C4.31795 11.9962 4.86329 12.5417 4.86329 13.2122C4.86329 13.8827 4.31795 14.4282 3.64747 14.4282C2.97698 14.4282 2.43165 13.8827 2.43165 13.2122C2.43165 12.5417 2.97698 11.9962 3.64747 11.9962ZM2.93175 53.9968C2.93175 51.386 4.72663 49.4823 7.40047 49.1212C7.518 49.7882 7.63926 50.4398 7.75711 51.0733C8.16466 53.2639 8.54983 55.3332 8.55161 56.9436C8.53767 57.6632 8.46342 58.3395 8.38739 58.9077C8.21605 58.9255 8.04324 58.9346 7.86978 58.9346C5.14682 58.9346 2.93175 56.7196 2.93175 53.9968Z" fill="#282D26"/>
<path d="M57.9772 46.7191C58.3844 43.8335 58.5832 40.7421 58.0681 37.6416L61.9071 34.7869C62.2156 34.5573 62.3973 34.1956 62.3973 33.8111V16.6515C63.8125 16.1496 64.8289 14.7975 64.8289 13.2122C64.8289 11.2009 63.1928 9.56458 61.1815 9.56458C59.1702 9.56458 57.534 11.2009 57.534 13.2122C57.534 14.7975 58.5504 16.1496 59.9656 16.6515V33.2003L57.4632 35.0611C57.2158 34.2566 56.9104 33.4553 56.5383 32.6605C56.2537 32.0524 55.53 31.7903 54.9216 32.0749C54.3135 32.3598 54.0512 33.0836 54.3361 33.6916C54.7848 34.6502 55.1223 35.629 55.3689 36.6185L51.7354 39.3204C51.1965 39.7211 51.0845 40.4827 51.4852 41.0216C51.7238 41.3424 52.0904 41.512 52.4618 41.512C52.714 41.512 52.9684 41.4338 53.1864 41.2717L55.8278 39.3076C56.218 43.2483 55.4789 47.2195 54.8446 50.6284C54.4149 52.9374 54.0091 55.1183 54.0091 56.9547C54.0091 56.9621 54.0091 56.9696 54.0093 56.977C54.03 58.1113 54.1793 59.1406 54.278 59.8217C54.3124 60.0592 54.3422 60.2651 54.3563 60.4039C54.4008 60.9406 54.4233 61.4911 54.4233 62.0402C54.4233 67.1659 49.8808 73.4336 40.9202 80.6706C38.5547 82.5898 35.5776 83.6455 32.5274 83.6455C32.516 83.6455 32.5045 83.6455 32.4931 83.6455C29.4359 83.6468 26.4465 82.597 24.0722 80.6706C23.5509 80.2477 22.7851 80.3273 22.3621 80.8488C21.939 81.3701 22.0188 82.1358 22.5403 82.5589C25.3375 84.8286 28.8585 86.0771 32.4526 86.0771H32.5335C36.1336 86.077 39.655 84.8284 42.4502 82.5607C52.0085 74.8409 56.8551 67.9369 56.8551 62.0402C56.8551 61.8139 56.8517 61.5871 56.8449 61.361C56.9373 61.3644 57.03 61.3662 57.1227 61.3662C61.1863 61.3662 64.4922 58.0603 64.4922 53.9967C64.4921 50.1553 61.8223 47.2617 57.9772 46.7191ZM61.1815 11.9962C61.8519 11.9962 62.3973 12.5417 62.3973 13.2122C62.3973 13.8827 61.8519 14.4282 61.1815 14.4282C60.511 14.4282 59.9656 13.8827 59.9656 13.2122C59.9656 12.5417 60.5111 11.9962 61.1815 11.9962ZM57.1226 58.9345C56.9491 58.9345 56.7763 58.9254 56.605 58.9076C56.5289 58.3394 56.4547 57.6634 56.4407 56.9438C56.4425 55.3334 56.8275 53.2639 57.2352 51.0732C57.3531 50.4397 57.4743 49.7881 57.5919 49.1211C60.2657 49.4824 62.0604 51.3861 62.0604 53.9967C62.0604 56.7194 59.8454 58.9345 57.1226 58.9345Z" fill="#282D26"/>
<path d="M31.3509 64.773C31.3509 64.1864 31.8282 63.7092 32.4147 63.7092C33.0012 63.7092 33.4785 64.1863 33.4785 64.773C33.4785 65.4445 34.0229 65.9889 34.6943 65.9889C35.3658 65.9889 35.9102 65.4445 35.9102 64.773C35.9102 62.8455 34.342 61.2773 32.4147 61.2773C30.4874 61.2773 28.9193 62.8454 28.9193 64.773C28.9193 65.4445 29.4636 65.9889 30.1351 65.9889C30.8066 65.9889 31.3509 65.4445 31.3509 64.773Z" fill="#282D26"/>
<path d="M27.2198 56.6588C27.443 57.0555 27.8556 57.2786 28.2805 57.2786C28.4825 57.2786 28.6872 57.2281 28.8756 57.1221C29.4608 56.7927 29.6682 56.0515 29.3389 55.4663C28.1575 53.3669 25.928 52.0627 23.5205 52.0627C21.113 52.0627 18.8835 53.3668 17.702 55.4661C17.3728 56.0514 17.5801 56.7927 18.1652 57.1221C18.7502 57.4514 19.4917 57.244 19.8211 56.659C20.5725 55.324 21.99 54.4944 23.5205 54.4944C25.051 54.4944 26.4686 55.3236 27.2198 56.6588Z" fill="#282D26"/>
<path d="M45.008 56.6594C45.3374 57.2445 46.0787 57.4519 46.6639 57.1226C47.249 56.7932 47.4565 56.0518 47.127 55.4666C45.9454 53.3672 43.7159 52.0631 41.3086 52.0631C38.9013 52.0631 36.6716 53.3672 35.4902 55.4667C35.1609 56.052 35.3683 56.7933 35.9535 57.1226C36.142 57.2286 36.3466 57.279 36.5486 57.279C36.9735 57.279 37.3861 57.056 37.6093 56.6593C38.3607 55.3242 39.778 54.4949 41.3085 54.4949C42.8389 54.4949 44.2567 55.3244 45.008 56.6594Z" fill="#282D26"/>
<path d="M26 75.077H38.0001" stroke="#282D26" stroke-width="2" stroke-linecap="round"/>
</svg>
