<svg width="66" height="86" viewBox="0 0 66 86" fill="none" xmlns="http://www.w3.org/2000/svg">
<path d="M20.1955 76.4239C13.9295 70.6403 10.7523 65.5473 10.7523 61.2862C10.7523 60.7376 10.7749 60.187 10.8193 59.6494C10.8334 59.5106 10.8632 59.3049 10.8976 59.0676C10.9963 58.3864 11.1456 57.3572 11.1663 56.223C11.1665 56.2156 11.1665 56.2081 11.1665 56.2007C11.1665 54.3643 10.7608 52.1834 10.331 49.8743C9.70266 46.4981 8.97187 42.5703 9.33694 38.6669L11.826 40.5178C12.044 40.68 12.2984 40.7581 12.5506 40.7581C12.922 40.7581 13.2885 40.5885 13.5271 40.2677C13.9279 39.7289 13.8159 38.9673 13.277 38.5665L9.78145 35.9673C10.03 34.9429 10.3751 33.9295 10.8394 32.9379C11.124 32.3298 10.8619 31.606 10.2538 31.3212C9.64592 31.0365 8.9221 31.2987 8.63712 31.9067C8.24984 32.734 7.93486 33.5685 7.68229 34.4061L5.04688 32.4461V15.8973C6.46209 15.3954 7.47852 14.0432 7.47852 12.4579C7.47852 10.4466 5.84235 8.8103 3.83106 8.8103C1.81976 8.8103 0.183594 10.4466 0.183594 12.4579C0.183594 14.0432 1.20002 15.3954 2.61524 15.8973V33.0571C2.61524 33.4416 2.79712 33.8033 3.10545 34.0328L7.08978 36.9957C6.59713 40.0599 6.79604 43.1131 7.1984 45.9651C3.35348 46.5075 0.683701 49.4011 0.683701 53.2425C0.683701 57.3061 3.98976 60.612 8.0532 60.612C8.14593 60.612 8.23849 60.6102 8.33089 60.6068C8.32408 60.8331 8.32068 61.0597 8.32068 61.2861C8.32068 66.2536 11.7611 71.9479 18.5464 78.2106C18.7801 78.4264 19.0758 78.5331 19.3707 78.5331C19.6983 78.5331 20.0248 78.4014 20.2644 78.1419C20.7198 77.6484 20.689 76.8792 20.1955 76.4239ZM3.83106 11.2419C4.50154 11.2419 5.04688 11.7874 5.04688 12.4579C5.04688 13.1284 4.50154 13.6739 3.83106 13.6739C3.16057 13.6739 2.61524 13.1284 2.61524 12.4579C2.61524 11.7874 3.16057 11.2419 3.83106 11.2419ZM3.11534 53.2425C3.11534 50.6317 4.91022 48.7281 7.58405 48.3669C7.70158 49.034 7.82284 49.6855 7.94069 50.319C8.34824 52.5096 8.73341 54.5789 8.73519 56.1893C8.72125 56.9089 8.64701 57.5853 8.57098 58.1534C8.39963 58.1713 8.22682 58.1804 8.05336 58.1804C5.33041 58.1804 3.11534 55.9653 3.11534 53.2425Z" fill="#282D26"/>
<path d="M58.1608 45.9649C58.568 43.0793 58.7668 39.9879 58.2517 36.8874L62.0906 34.0326C62.3991 33.8031 62.5809 33.4414 62.5809 33.0569V15.8973C63.9961 15.3954 65.0125 14.0432 65.0125 12.4579C65.0125 10.4466 63.3763 8.8103 61.365 8.8103C59.3537 8.8103 57.7176 10.4466 57.7176 12.4579C57.7176 14.0432 58.734 15.3954 60.1492 15.8973V32.4461L57.6467 34.3069C57.3994 33.5024 57.0939 32.7011 56.7219 31.9063C56.4372 31.2982 55.7136 31.036 55.1052 31.3207C54.4971 31.6055 54.2348 32.3294 54.5196 32.9374C54.9684 33.896 55.3059 34.8748 55.5524 35.8643L51.9189 38.5662C51.3801 38.9669 51.2681 39.7285 51.6688 40.2674C51.9074 40.5882 52.2739 40.7578 52.6453 40.7578C52.8976 40.7578 53.1519 40.6796 53.37 40.5175L56.0114 38.5534C56.4016 42.4941 55.6625 46.4653 55.0282 49.8742C54.5984 52.1833 54.1927 54.3641 54.1927 56.2005C54.1927 56.208 54.1927 56.2154 54.1928 56.2229C54.2136 57.3572 54.3629 58.3864 54.4616 59.0676C54.496 59.3051 54.5258 59.511 54.5399 59.6497C54.5843 60.1865 54.6069 60.737 54.6069 61.2861C54.6069 66.4118 50.0644 72.6795 41.1038 79.9165C38.7383 81.8357 35.7612 82.8914 32.7109 82.8914C32.6996 82.8914 32.6881 82.8914 32.6767 82.8914C29.6195 82.8927 26.63 81.8429 24.2558 79.9165C23.7344 79.4936 22.9686 79.5732 22.5457 80.0947C22.1226 80.616 22.2023 81.3817 22.7238 81.8048C25.521 84.0745 29.0421 85.3231 32.6362 85.3231H32.7171C36.3172 85.3229 39.8385 84.0743 42.6338 81.8066C52.1921 74.0867 57.0387 67.1828 57.0387 61.2861C57.0387 61.0598 57.0353 60.833 57.0285 60.6068C57.1209 60.6102 57.2136 60.612 57.3063 60.612C61.3699 60.612 64.6758 57.3061 64.6758 53.2425C64.6756 49.4011 62.0059 46.5075 58.1608 45.9649ZM61.365 11.242C62.0355 11.242 62.5809 11.7874 62.5809 12.4579C62.5809 13.1284 62.0355 13.6739 61.365 13.6739C60.6946 13.6739 60.1492 13.1284 60.1492 12.4579C60.1492 11.7874 60.6947 11.242 61.365 11.242ZM57.3061 58.1804C57.1327 58.1804 56.9599 58.1713 56.7885 58.1535C56.7125 57.5853 56.6383 56.9093 56.6243 56.1897C56.6261 54.5793 57.0111 52.5098 57.4188 50.319C57.5367 49.6855 57.6579 49.034 57.7755 48.3669C60.4493 48.7282 62.244 50.6319 62.244 53.2425C62.244 55.9653 60.0289 58.1804 57.3061 58.1804Z" fill="#282D26"/>
<path d="M31.5346 64.0191C31.5346 63.4326 32.0118 62.9553 32.5983 62.9553C33.1848 62.9553 33.6621 63.4324 33.6621 64.0191C33.6621 64.6906 34.2064 65.235 34.8779 65.235C35.5494 65.235 36.0937 64.6906 36.0937 64.0191C36.0937 62.0917 34.5256 60.5236 32.5983 60.5236C30.671 60.5236 29.1029 62.0915 29.1029 64.0191C29.1029 64.6906 29.6473 65.235 30.3187 65.235C30.9902 65.235 31.5346 64.6906 31.5346 64.0191Z" fill="#282D26"/>
<path d="M27.4034 55.9047C27.6267 56.3013 28.0392 56.5244 28.4641 56.5244C28.6661 56.5244 28.8708 56.474 29.0592 56.368C29.6444 56.0386 29.8518 55.2974 29.5225 54.7122C28.3411 52.613 26.1116 51.3088 23.7041 51.3088C21.2966 51.3088 19.0671 52.6128 17.8857 54.7121C17.5564 55.2973 17.7638 56.0386 18.3488 56.368C18.9339 56.6972 19.6754 56.4899 20.0048 55.9048C20.7561 54.5699 22.1736 53.7404 23.7041 53.7404C25.2346 53.7404 26.6522 54.5696 27.4034 55.9047Z" fill="#282D26"/>
<path d="M45.1915 55.9048C45.5209 56.4899 46.2623 56.6972 46.8475 56.368C47.4325 56.0386 47.64 55.2973 47.3106 54.7121C46.129 52.6128 43.8995 51.3088 41.4922 51.3088C39.0849 51.3088 36.8552 52.6128 35.6738 54.7122C35.3445 55.2974 35.5519 56.0387 36.1371 56.368C36.3256 56.474 36.5302 56.5244 36.7322 56.5244C37.1571 56.5244 37.5696 56.3013 37.7929 55.9047C38.5442 54.5697 39.9616 53.7404 41.492 53.7404C43.0225 53.7404 44.4403 54.5699 45.1915 55.9048Z" fill="#282D26"/>
<path d="M26.1836 74.3228H38.1836" stroke="#282D26" stroke-width="2" stroke-linecap="round"/>
<path d="M26.3075 38.4016C27.3924 38.6728 29.6437 39.2153 29.9692 39.2153L33.2241 37.181V4.22534L32.4104 2.5979L30.7829 1.78418H28.3418L25.4937 3.00476L23.8663 5.03906L21.4251 5.44592L18.5771 7.07336L16.9496 9.92137V12.7694L18.1702 14.8037L15.729 16.4311L14.1016 18.8723L14.5084 21.3134L15.729 24.5683L18.1702 26.1958L16.5427 30.2644L18.1702 33.5192L21.0182 35.1467L23.8663 35.5535L26.3075 38.4016Z" fill="white"/>
<path d="M38.107 4.22523C37.7815 4.55072 36.3439 5.17458 35.6658 5.44582L33.6315 7.887L33.2246 37.9949L36.0726 36.3674L42.5825 33.1125L47.8717 29.0439L51.9403 25.3821L53.9746 21.7203L54.3815 17.6517V12.7694L52.754 8.29386L50.7197 5.44582L47.4648 3.81837C46.8138 3.49287 45.2949 3.14026 44.6168 3.00464C43.803 3.14026 42.0128 3.4115 41.3619 3.4115C40.5481 3.4115 38.5138 3.81837 38.107 4.22523Z" fill="#8DCDD1"/>
<path d="M51.9718 6.17637C49.7622 3.57632 46.5361 2.25799 42.3834 2.25799C40.5403 2.25799 38.6423 2.73063 36.7422 3.66268C35.3874 4.3273 34.2281 5.32498 33.3604 6.5648V4.40995C33.3988 2.63311 32.1175 1.07032 30.3756 0.772305C29.2497 0.57958 28.0259 0.681727 26.7386 1.07594C26.725 1.08007 26.7115 1.08453 26.6983 1.08941C25.1028 1.66907 23.7916 2.81005 23.0221 4.26755C22.8535 4.25557 22.6928 4.24962 22.538 4.24962C20.1348 4.24962 17.8895 5.39787 16.5323 7.32066C15.0215 9.45675 14.8618 12.2624 16.0536 14.5564C13.9923 15.8468 12.7451 18.0496 12.7451 20.4934C12.7451 23.0504 14.1457 25.3665 16.3831 26.6235C15.488 28.3591 15.3902 30.4309 16.1591 32.2309C16.1628 32.2397 16.1667 32.2483 16.1708 32.257C17.4457 34.9764 19.907 36.4753 22.8335 36.3504C23.9735 38.7932 26.2091 40.2305 29.0563 40.3219C29.0652 40.3222 29.074 40.3223 29.0828 40.3223C29.5428 40.3223 30.1014 40.2198 30.7904 40.0091C31.5359 39.781 32.1662 39.327 32.6165 38.739C32.6808 38.734 32.745 38.7214 32.8075 38.7011C33.1595 38.5869 41.5186 35.822 49.3048 28.6602C53.0691 25.1979 55.0589 20.8626 55.0589 16.1233C55.0589 11.9924 53.9913 8.55287 51.9718 6.17637ZM30.3067 38.4286C29.6688 38.6238 29.2969 38.6679 29.0949 38.6695C26.7051 38.588 24.9451 37.3528 24.1382 35.1901C24.0165 34.864 23.7056 34.6525 23.3643 34.6525C23.3318 34.6525 23.2991 34.6544 23.2662 34.6583C20.7762 34.9546 18.7385 33.8285 17.6735 31.5685C17.119 30.2592 17.1783 28.7573 17.8026 27.4801C18.3187 27.7663 18.899 27.9256 19.5018 27.9392C19.53 27.9399 19.558 27.9402 19.5861 27.9402C20.5279 27.9402 21.4044 27.581 22.0619 26.9236C22.3846 26.6008 22.3846 26.0775 22.0619 25.7547C21.7392 25.432 21.2159 25.432 20.8931 25.7547C20.5383 26.1095 20.057 26.2984 19.5392 26.2868C19.0147 26.2749 18.5206 26.0632 18.148 25.6904C18.1411 25.6836 18.1336 25.6777 18.1266 25.6711C18.1175 25.6627 18.1085 25.6542 18.099 25.6462C18.0846 25.6339 18.0697 25.6224 18.0547 25.6113C18.0464 25.6051 18.0383 25.5988 18.0298 25.593C18.0104 25.5798 17.9905 25.5676 17.9704 25.5562C17.9652 25.5532 17.9602 25.5499 17.955 25.5471C17.9277 25.5324 17.8999 25.5192 17.8714 25.5078C15.7613 24.6578 14.398 22.6896 14.398 20.4934C14.398 18.7429 15.2411 17.1527 16.652 16.1453C17.1881 17.4475 18.4551 18.3514 19.9346 18.3514C20.391 18.3514 20.761 17.9814 20.761 17.5249C20.761 17.0685 20.391 16.6985 19.9346 16.6985C18.9093 16.6985 18.0739 15.8803 18.0328 14.8357C18.0326 14.8318 18.0319 14.8281 18.0318 14.8242C18.0311 14.8116 18.0296 14.7992 18.0284 14.7868C18.0267 14.7697 18.0249 14.7528 18.0223 14.7362C18.0205 14.7255 18.0183 14.7149 18.0162 14.7044C18.0124 14.6858 18.0083 14.6674 18.0033 14.6492C18.0009 14.6404 17.9982 14.6316 17.9955 14.6229C17.9894 14.6032 17.9827 14.5839 17.9752 14.5649C17.9722 14.5575 17.9692 14.5501 17.966 14.5426C17.9574 14.5225 17.9479 14.5028 17.9377 14.4835C17.9345 14.4773 17.9314 14.4711 17.9279 14.465C17.9162 14.444 17.9034 14.4238 17.89 14.404C17.8879 14.4009 17.8862 14.3976 17.8841 14.3945C16.596 12.5536 16.595 10.0944 17.8822 8.27445C18.9306 6.78917 20.6711 5.90249 22.538 5.90249C22.6145 5.90249 22.6948 5.90514 22.777 5.90918C23.1301 7.50958 24.5759 8.71204 26.3015 8.71204C26.758 8.71204 27.128 8.34205 27.128 7.88561C27.128 7.42917 26.758 7.05917 26.3015 7.05917C25.2778 7.05917 24.436 6.28695 24.354 5.30804C24.9082 4.07408 25.9268 3.13401 27.2429 2.65022C28.2735 2.33749 29.2336 2.25386 30.0969 2.40162C31.0391 2.56286 31.7317 3.41343 31.7078 4.3802C31.7076 4.38705 31.7075 4.39383 31.7075 4.40061V20.5136L31.7075 36.5304C31.7192 37.3932 31.147 38.1715 30.3067 38.4286ZM48.1858 27.4439C45.228 30.1645 41.7705 33.304 33.3603 36.7353V36.6341C33.3615 36.5802 33.3617 36.5262 33.3604 36.472V20.1243L33.3605 11.8188C33.3605 8.9903 34.9737 6.37133 37.4703 5.14655C39.1419 4.32656 40.7949 3.91078 42.3835 3.91078C51.974 3.91086 53.406 11.5623 53.406 16.1233C53.406 20.4489 51.6496 24.2577 48.1858 27.4439Z" fill="#282D26" stroke="#282D26" stroke-width="0.5"/>
</svg>
