<svg width="65" height="86" viewBox="0 0 65 86" fill="none" xmlns="http://www.w3.org/2000/svg">
<path d="M20.0648 77.078C13.7822 71.2791 10.5966 66.1727 10.5966 61.9004C10.5966 61.3504 10.6192 60.7982 10.6638 60.2592C10.6779 60.1201 10.7078 59.9138 10.7423 59.6759C10.8413 58.9929 10.9909 57.961 11.0118 56.8238C11.0119 56.8164 11.0119 56.8089 11.0119 56.8014C11.0119 54.9602 10.6051 52.7736 10.1742 50.4584C9.5442 47.0732 8.81148 43.1351 9.17752 39.2214L11.6731 41.0772C11.8917 41.2398 12.1467 41.3181 12.3997 41.3181C12.772 41.3181 13.1395 41.1481 13.3788 40.8264C13.7806 40.2861 13.6683 39.5225 13.128 39.1208L9.6232 36.5146C9.87236 35.4875 10.2184 34.4715 10.6839 33.4773C10.9693 32.8676 10.7065 32.1419 10.0968 31.8563C9.48732 31.5709 8.76159 31.8337 8.47585 32.4434C8.08754 33.2728 7.77173 34.1096 7.5185 34.9494L4.87613 32.9841V16.3917C6.29508 15.8884 7.31419 14.5327 7.31419 12.9433C7.31419 10.9267 5.6737 9.28601 3.6571 9.28601C1.6405 9.28601 1.14441e-05 10.9267 1.14441e-05 12.9433C1.14441e-05 14.5327 1.01912 15.8884 2.43807 16.3917V33.5968C2.43807 33.9823 2.62044 34.3449 2.92958 34.5751L6.92443 37.5458C6.43048 40.618 6.62991 43.6793 7.03333 46.5388C3.17827 47.0826 0.501439 49.9839 0.501439 53.8354C0.501439 57.9098 3.81623 61.2244 7.89039 61.2244C7.98336 61.2244 8.07617 61.2226 8.16881 61.2192C8.16199 61.4461 8.15857 61.6733 8.15857 61.9002C8.15857 66.8809 11.6081 72.5902 18.4113 78.8695C18.6456 79.0858 18.9421 79.1927 19.2378 79.1927C19.5663 79.1927 19.8936 79.0608 20.1338 78.8005C20.5904 78.3058 20.5595 77.5345 20.0648 77.078ZM3.6571 11.7241C4.32935 11.7241 4.87613 12.271 4.87613 12.9433C4.87613 13.6155 4.32935 14.1625 3.6571 14.1625C2.98485 14.1625 2.43807 13.6155 2.43807 12.9433C2.43807 12.271 2.98485 11.7241 3.6571 11.7241ZM2.9395 53.8354C2.9395 51.2178 4.73911 49.3091 7.42 48.947C7.53784 49.6158 7.65942 50.269 7.77759 50.9042C8.1862 53.1006 8.57239 55.1754 8.57418 56.79C8.5602 57.5115 8.48576 58.1897 8.40953 58.7593C8.23773 58.7772 8.06446 58.7863 7.89055 58.7863C5.16041 58.7863 2.9395 56.5654 2.9395 53.8354Z" fill="#282D26"/>
<path d="M58.1302 46.5384C58.5385 43.6453 58.7378 40.5457 58.2214 37.437L62.0704 34.5747C62.3797 34.3445 62.562 33.9819 62.562 33.5964V16.3914C63.9809 15.8882 65 14.5325 65 12.943C65 10.9264 63.3595 9.28577 61.3429 9.28577C59.3263 9.28577 57.6858 10.9264 57.6858 12.943C57.6858 14.5325 58.7049 15.8882 60.1239 16.3914V32.9839L57.6148 34.8497C57.3668 34.043 57.0606 33.2396 56.6875 32.4427C56.4021 31.833 55.6765 31.5702 55.0665 31.8556C54.4569 32.1412 54.1939 32.8669 54.4795 33.4766C54.9294 34.4377 55.2678 35.4191 55.515 36.4112L51.8719 39.1202C51.3316 39.522 51.2193 40.2856 51.6211 40.8259C51.8603 41.1476 52.2278 41.3176 52.6002 41.3176C52.8531 41.3176 53.1081 41.2392 53.3267 41.0767L55.9751 39.1074C56.3663 43.0585 55.6253 47.0402 54.9893 50.458C54.5584 52.7732 54.1516 54.9598 54.1516 56.8011C54.1516 56.8085 54.1516 56.816 54.1518 56.8235C54.1726 57.9608 54.3223 58.9927 54.4213 59.6757C54.4557 59.9138 54.4856 60.1203 54.4998 60.2594C54.5443 60.7976 54.5669 61.3495 54.5669 61.9C54.5669 67.0393 50.0124 73.3235 41.0282 80.5797C38.6564 82.504 35.6714 83.5624 32.6131 83.5624C32.6018 83.5624 32.5902 83.5624 32.5788 83.5624C29.5135 83.5637 26.5162 82.5111 24.1357 80.5797C23.6129 80.1556 22.8451 80.2354 22.4211 80.7583C21.9968 81.281 22.0768 82.0487 22.5997 82.4729C25.4043 84.7486 28.9346 86.0005 32.5382 86.0005H32.6193C36.2289 86.0003 39.7596 84.7485 42.5622 82.4747C52.1457 74.7345 57.0051 67.8124 57.0051 61.9C57.0051 61.6731 57.0017 61.4458 56.9949 61.219C57.0875 61.2224 57.1805 61.2242 57.2735 61.2242C61.3478 61.2242 64.6624 57.9096 64.6624 53.8352C64.6623 49.9837 61.9854 47.0825 58.1302 46.5384ZM61.3429 11.7238C62.0152 11.7238 62.562 12.2708 62.562 12.943C62.562 13.6153 62.0152 14.1622 61.3429 14.1622C60.6707 14.1622 60.1239 13.6153 60.1239 12.943C60.1239 12.2708 60.6708 11.7238 61.3429 11.7238ZM57.2733 58.7861C57.0994 58.7861 56.9261 58.777 56.7543 58.7592C56.6781 58.1895 56.6037 57.5117 56.5897 56.7902C56.5915 55.1755 56.9775 53.1006 57.3863 50.904C57.5044 50.2688 57.626 49.6156 57.7439 48.9468C60.4247 49.3091 62.2242 51.2177 62.2242 53.8352C62.2242 56.5652 60.0033 58.7861 57.2733 58.7861Z" fill="#282D26"/>
<path d="M31.4337 64.6398C31.4337 64.0518 31.9122 63.5732 32.5003 63.5732C33.0883 63.5732 33.5668 64.0516 33.5668 64.6398C33.5668 65.3131 34.1126 65.8589 34.7859 65.8589C35.4591 65.8589 36.0049 65.3131 36.0049 64.6398C36.0049 62.7074 34.4327 61.1351 32.5003 61.1351C30.5679 61.1351 28.9957 62.7072 28.9957 64.6398C28.9957 65.3131 29.5415 65.8589 30.2147 65.8589C30.8879 65.8589 31.4337 65.3131 31.4337 64.6398Z" fill="#282D26"/>
<path d="M27.2917 56.5044C27.5155 56.9021 27.9292 57.1257 28.3552 57.1257C28.5577 57.1257 28.763 57.0752 28.9518 56.9689C29.5386 56.6386 29.7465 55.8955 29.4164 55.3088C28.2318 53.204 25.9964 51.8965 23.5826 51.8965C21.1687 51.8965 18.9334 53.2039 17.7488 55.3086C17.4187 55.8954 17.6266 56.6386 18.2131 56.9689C18.7997 57.299 19.5432 57.0911 19.8735 56.5045C20.6268 55.1661 22.0481 54.3344 23.5826 54.3344C25.1171 54.3344 26.5385 55.1658 27.2917 56.5044Z" fill="#282D26"/>
<path d="M45.1268 56.5045C45.4571 57.0911 46.2004 57.299 46.7871 56.9689C47.3737 56.6386 47.5818 55.8954 47.2515 55.3086C46.0668 53.2039 43.8314 51.8965 41.4177 51.8965C39.004 51.8965 36.7685 53.2039 35.5839 55.3088C35.2538 55.8955 35.4617 56.6388 36.0484 56.9689C36.2375 57.0752 36.4426 57.1257 36.6451 57.1257C37.0711 57.1257 37.4848 56.9021 37.7086 56.5044C38.462 55.1659 39.883 54.3344 41.4175 54.3344C42.9521 54.3344 44.3736 55.1661 45.1268 56.5045Z" fill="#282D26"/>
<path d="M26.0687 74.9713H38.1004" stroke="#282D26" stroke-width="2" stroke-linecap="round"/>
<path d="M47.2633 16.5619C47.2633 21.8107 44.3847 26.4012 40.0872 28.9186C38.6927 29.7355 37.828 31.1948 37.828 32.7826H27.172C27.172 31.1884 26.2943 29.7307 24.8949 28.9074C20.6543 26.4155 17.8017 21.9027 17.74 16.7348C17.6522 9.46671 23.1947 3.31375 30.4016 2.30174C30.9705 2.22243 31.5524 2.17485 32.1408 2.16057C40.4578 1.96705 47.2633 8.4896 47.2633 16.5619Z" fill="#FFD469"/>
<path d="M47.2631 16.5595C47.2631 21.8083 44.3846 26.3987 40.0871 28.916C38.6925 29.7329 37.8278 31.1922 37.8278 32.78H33.6262C33.6262 31.1922 34.4909 29.7329 35.8855 28.916C40.183 26.3987 43.0599 21.8083 43.0599 16.5595C43.0599 9.30105 37.558 3.29568 30.4015 2.29954C30.9704 2.22023 31.5523 2.17265 32.1406 2.15837C40.4577 1.96486 47.2631 8.48732 47.2631 16.5595Z" fill="#FFBA4C"/>
<path d="M25.3832 34.0424H38.4175L36.4122 43.066H27.8898L25.3832 34.0424Z" fill="#8DCDD1"/>
<path d="M47.2633 16.5599C47.2633 21.8087 45.2215 25.0087 40.924 27.526C40.4227 28.5286 39.4201 31.0352 38.7211 32.7804H25.2164C24.8818 31.0352 23.3778 27.526 23.3778 27.526C19.1372 25.0341 17.8017 21.9007 17.74 16.7328C17.6522 9.46488 23.1947 3.31203 30.4016 2.30003C30.9705 2.22072 31.5524 2.17314 32.1408 2.15886C40.4578 1.96534 47.2633 8.48779 47.2633 16.5599Z" fill="white"/>
<path fill-rule="evenodd" clip-rule="evenodd" d="M39.4856 5.46345C38.3244 4.76193 37.4838 4.35286 36.9042 4.13791L37.6838 2.03575C38.4454 2.3182 39.4196 2.80408 40.645 3.54443L39.4856 5.46345Z" fill="#282D26"/>
<path d="M23.8792 14.4913L24.8818 19.0031V20.0058H27.8898L29.3937 23.515L29.895 33.5414L33.9056 34.0427L34.4069 26.0216L34.9082 22.5124L36.9135 20.0058L39.4201 18.0005V13.9899L37.4148 12.9873L35.4096 10.4807H32.903L29.3937 9.97937L26.3858 11.9847L23.8792 14.4913Z" fill="#8DCDD1"/>
<path d="M40.5394 3.45579L39.3039 5.36669C41.1403 6.52867 42.6716 8.10612 43.7714 9.96902C44.8712 11.8319 45.5081 13.9269 45.6296 16.0814C45.7511 18.2358 45.3537 20.388 44.4702 22.3605C43.5866 24.3331 42.2423 26.0695 40.5479 27.4266C40.3844 27.5576 40.2605 27.7306 40.1898 27.9267L38.4593 32.724H35.3381V23.916L36.6858 21.2474C37.3441 21.4338 38.0437 21.4212 38.6947 21.2114C39.3458 21.0015 39.9187 20.6039 40.34 20.0695C40.7613 19.5351 41.0117 18.8883 41.0593 18.2121C41.1068 17.5358 40.9492 16.8609 40.6067 16.2739C40.9084 15.7566 41.0673 15.1697 41.0673 14.5723C41.0673 13.9748 40.9085 13.388 40.6068 12.8706C40.3051 12.3532 39.8712 11.9235 39.3486 11.6248C38.8261 11.3261 38.2333 11.1688 37.6299 11.1687C37.5648 11.1687 37.5001 11.1705 37.4355 11.1741C37.248 10.6464 36.932 10.1727 36.5155 9.7947C36.0989 9.41673 35.5948 9.14624 35.0475 9.00715C34.5002 8.86806 33.9268 8.86466 33.3779 8.99726C32.829 9.12986 32.3215 9.39436 31.9005 9.76736C31.4794 9.39436 30.972 9.12986 30.4231 8.99726C29.8742 8.86466 29.3008 8.86806 28.7535 9.00715C28.2062 9.14624 27.702 9.41673 27.2855 9.7947C26.869 10.1727 26.553 10.6464 26.3655 11.1741C26.3009 11.1705 26.2361 11.1687 26.1711 11.1687C25.5677 11.1688 24.9749 11.3261 24.4524 11.6248C23.9298 11.9235 23.4959 12.3532 23.1942 12.8706C22.8925 13.388 22.7337 13.9748 22.7337 14.5723C22.7337 15.1697 22.8926 15.7566 23.1943 16.2739C22.8512 16.8609 22.6932 17.5359 22.7405 18.2124C22.7878 18.8889 23.0382 19.536 23.4597 20.0705C23.8811 20.6051 24.4543 21.0027 25.1056 21.2124C25.757 21.4221 26.4568 21.4343 27.1152 21.2474L28.4629 23.916V28.5279H30.7546V23.6481C30.7546 23.4719 30.7132 23.2982 30.6336 23.1407L29.171 20.2446H34.63L33.1674 23.1407C33.0878 23.2982 33.0463 23.4719 33.0464 23.6481V32.724H30.7546V28.5279H28.4629V32.724H25.3416L23.6111 27.9267C23.5404 27.7306 23.4165 27.5576 23.253 27.4266C20.6821 25.3653 18.9478 22.4557 18.3679 19.2311C17.7881 16.0065 18.4016 12.683 20.0959 9.86994C21.7903 7.05684 24.452 4.94262 27.5931 3.91487C30.7342 2.88711 34.1442 3.01467 37.198 4.27418L38.0816 2.18049C34.5447 0.719258 30.5964 0.55974 26.951 1.7308C23.3056 2.90186 20.204 5.32613 18.2075 8.56495C16.2109 11.8038 15.4513 15.6432 16.066 19.3884C16.6807 23.1337 18.6293 26.5374 21.559 28.9836L25.0921 38.7779C25.1439 38.9214 25.2243 39.0531 25.3286 39.1652C25.4329 39.2773 25.5589 39.3674 25.6991 39.4302C25.7256 39.4421 25.7526 39.4529 25.7799 39.4628C25.7943 39.4677 25.8073 39.4723 25.8212 39.477C25.9343 39.5128 26.0523 39.531 26.1711 39.5309V41.5163C26.1719 42.193 26.4438 42.8418 26.9271 43.3203C27.4105 43.7989 28.0658 44.0681 28.7493 44.0688H35.0517C35.7352 44.0681 36.3905 43.7989 36.8738 43.3203C37.3572 42.8418 37.6291 42.193 37.6299 41.5163V39.5309C37.7487 39.5309 37.8668 39.5127 37.9799 39.4767C37.9943 39.4723 38.0076 39.4677 38.0212 39.4625C38.0485 39.4526 38.0755 39.4418 38.102 39.4299C38.2422 39.3671 38.3683 39.277 38.4725 39.1649C38.5768 39.0529 38.6573 38.9211 38.709 38.7776L42.242 28.9836C44.1644 27.3784 45.6787 25.3484 46.6629 23.0572C47.6471 20.7661 48.0735 18.278 47.9078 15.7936C47.7421 13.3093 46.9889 10.8983 45.709 8.75514C44.4291 6.61201 42.6582 4.79674 40.5394 3.45579ZM28.1562 17.9757C27.9552 17.9757 27.7578 18.028 27.5837 18.1274C27.4097 18.2268 27.2651 18.3698 27.1644 18.5421C27.0812 18.6843 26.9679 18.8069 26.8321 18.9014C26.6963 18.9959 26.5414 19.0602 26.3781 19.0896C26.2148 19.119 26.047 19.113 25.8863 19.0719C25.7256 19.0308 25.5758 18.9556 25.4474 18.8516C25.3189 18.7475 25.2148 18.6171 25.1422 18.4693C25.0697 18.3215 25.0304 18.1598 25.0272 17.9955C25.024 17.8312 25.0568 17.6682 25.1235 17.5177C25.1902 17.3672 25.2891 17.2329 25.4134 17.1239C25.5353 17.0175 25.633 16.8865 25.6999 16.7398C25.7668 16.5931 25.8013 16.434 25.8013 16.2731C25.8013 16.1121 25.7668 15.953 25.6999 15.8063C25.633 15.6596 25.5353 15.5287 25.4134 15.4222C25.2392 15.2697 25.1159 15.0684 25.06 14.8449C25.0041 14.6214 25.0182 14.3864 25.1004 14.171C25.1827 13.9557 25.3291 13.7702 25.5204 13.6392C25.7116 13.5082 25.9386 13.438 26.1711 13.4377C26.2335 13.4377 26.2957 13.4427 26.3573 13.4526C27.0019 15.4001 29.2425 16.8412 31.9005 16.8412V14.5722C30.1562 14.5722 28.6652 13.6616 28.4819 12.5364C28.48 12.512 28.4775 12.4874 28.474 12.4629C28.4676 12.4172 28.464 12.3711 28.4631 12.3249C28.4631 12.3177 28.4631 12.3107 28.4631 12.3032C28.463 12.0524 28.5468 11.8085 28.7016 11.6098C28.8563 11.4112 29.0731 11.2689 29.3182 11.2052C29.5633 11.1415 29.8228 11.1601 30.0561 11.258C30.2894 11.3559 30.4834 11.5276 30.6077 11.7462C30.7199 11.9427 30.8889 12.1015 31.0928 12.2024C31.2968 12.3033 31.5266 12.3417 31.7527 12.3126C31.851 12.3002 31.9505 12.3002 32.0489 12.3126C32.275 12.3419 32.5048 12.3036 32.7088 12.2027C32.9128 12.1017 33.0818 11.9428 33.1939 11.7462C33.2842 11.5876 33.4117 11.4529 33.5656 11.3533C33.7195 11.2538 33.8954 11.1924 34.0784 11.1743C34.2613 11.1562 34.446 11.182 34.6167 11.2495C34.7875 11.3169 34.9394 11.4241 35.0595 11.5618C33.8618 12.2645 33.0464 13.8366 33.0464 15.7067H35.3381C35.3381 14.7401 35.6687 14.0174 36.0272 13.6691C36.1914 13.7358 36.3689 13.7638 36.5458 13.7509C36.7227 13.7381 36.8942 13.6848 37.0468 13.5951C37.2923 13.4511 37.5834 13.403 37.8629 13.4602C38.1424 13.5174 38.3903 13.6759 38.558 13.9045C38.7257 14.1332 38.8012 14.4156 38.7697 14.6965C38.7382 14.9773 38.6019 15.2364 38.3876 15.4231C38.2657 15.5295 38.168 15.6605 38.1011 15.8072C38.0342 15.9539 37.9996 16.113 37.9996 16.2739C37.9996 16.4349 38.0342 16.594 38.1011 16.7407C38.168 16.8874 38.2657 17.0183 38.3876 17.1248C38.5119 17.2337 38.6108 17.3681 38.6775 17.5186C38.7441 17.669 38.777 17.8321 38.7738 17.9964C38.7705 18.1607 38.7313 18.3223 38.6588 18.4701C38.5862 18.6179 38.4821 18.7484 38.3536 18.8524C38.2251 18.9565 38.0754 19.0316 37.9147 19.0727C37.754 19.1138 37.5861 19.1199 37.4229 19.0904C37.2596 19.061 37.1047 18.9968 36.9689 18.9023C36.8331 18.8077 36.7197 18.6851 36.6365 18.5429C36.536 18.3705 36.3915 18.2274 36.2174 18.1278C36.0433 18.0282 35.8458 17.9758 35.6448 17.9757H28.1562ZM35.3381 41.5163C35.3381 41.5915 35.3079 41.6636 35.2542 41.7168C35.2005 41.77 35.1276 41.7999 35.0517 41.7999H28.7493C28.6734 41.7999 28.6005 41.77 28.5468 41.7168C28.493 41.6636 28.4629 41.5915 28.4629 41.5163V39.5309H35.3381V41.5163ZM36.8223 37.2619H26.9787L26.1601 34.993H37.6409L36.8223 37.2619Z" fill="#282D26"/>
</svg>
