<svg width="65" height="86" viewBox="0 0 65 86" fill="none" xmlns="http://www.w3.org/2000/svg">
<path d="M20.012 77.1005C13.7459 71.317 10.5687 66.224 10.5687 61.9629C10.5687 61.4144 10.5913 60.8637 10.6357 60.3261C10.6498 60.1874 10.6796 59.9817 10.714 59.7443C10.8127 59.0631 10.962 58.0339 10.9828 56.8998C10.9829 56.8923 10.9829 56.8849 10.9829 56.8774C10.9829 55.0411 10.5772 52.8602 10.1474 50.5511C9.51908 47.1749 8.78829 43.2471 9.15336 39.3437L11.6424 41.1947C11.8604 41.3568 12.1148 41.4349 12.367 41.4349C12.7384 41.4349 13.1049 41.2654 13.3436 40.9445C13.7443 40.4057 13.6323 39.6441 13.0934 39.2434L9.59787 36.6441C9.84638 35.6198 10.1915 34.6064 10.6558 33.6148C10.9405 33.0067 10.6783 32.2829 10.0703 31.9981C9.46234 31.7134 8.73852 31.9755 8.45354 32.5836C8.06626 33.4109 7.75128 34.2454 7.49871 35.083L4.86329 33.123V16.5742C6.27851 16.0723 7.29494 14.7202 7.29494 13.1349C7.29494 11.1236 5.65876 9.4873 3.64747 9.4873C1.63617 9.4873 0 11.1236 0 13.1349C0 14.7202 1.01643 16.0723 2.43165 16.5742V33.7339C2.43165 34.1185 2.61353 34.4801 2.92187 34.7097L6.9062 37.6725C6.41355 40.7367 6.61246 43.7899 7.01481 46.6419C3.16989 47.1843 0.500108 50.0779 0.500108 53.9193C0.500108 57.9828 3.80617 61.2887 7.86962 61.2887C7.96234 61.2887 8.05491 61.2869 8.14731 61.2835C8.1405 61.5098 8.1371 61.7365 8.1371 61.9628C8.1371 66.9303 11.5776 72.6245 18.3628 78.8873C18.5966 79.1031 18.8923 79.2097 19.1871 79.2097C19.5148 79.2097 19.8413 79.0781 20.0809 78.8186C20.5362 78.3251 20.5054 77.5559 20.012 77.1005ZM3.64747 11.9189C4.31795 11.9189 4.86329 12.4644 4.86329 13.1349C4.86329 13.8054 4.31795 14.3509 3.64747 14.3509C2.97698 14.3509 2.43165 13.8054 2.43165 13.1349C2.43165 12.4644 2.97698 11.9189 3.64747 11.9189ZM2.93175 53.9193C2.93175 51.3085 4.72663 49.4049 7.40047 49.0437C7.518 49.7108 7.63926 50.3623 7.75711 50.9958C8.16466 53.1864 8.54983 55.2557 8.55161 56.8661C8.53767 57.5857 8.46342 58.262 8.38739 58.8302C8.21605 58.848 8.04324 58.8571 7.86978 58.8571C5.14682 58.8571 2.93175 56.642 2.93175 53.9193Z" fill="#282D26"/>
<path d="M57.9772 46.6418C58.3844 43.7562 58.5832 40.6648 58.0681 37.5643L61.9071 34.7096C62.2156 34.48 62.3973 34.1184 62.3973 33.7338V16.5742C63.8125 16.0723 64.8289 14.7202 64.8289 13.1349C64.8289 11.1236 63.1928 9.4873 61.1815 9.4873C59.1702 9.4873 57.534 11.1236 57.534 13.1349C57.534 14.7202 58.5504 16.0723 59.9656 16.5742V33.123L57.4632 34.9839C57.2158 34.1793 56.9104 33.378 56.5383 32.5832C56.2537 31.9751 55.53 31.713 54.9216 31.9976C54.3135 32.2825 54.0512 33.0063 54.3361 33.6144C54.7848 34.5729 55.1223 35.5517 55.3689 36.5412L51.7354 39.2431C51.1965 39.6439 51.0845 40.4054 51.4852 40.9443C51.7238 41.2651 52.0904 41.4347 52.4618 41.4347C52.714 41.4347 52.9684 41.3565 53.1864 41.1944L55.8278 39.2303C56.218 43.171 55.4789 47.1422 54.8446 50.5511C54.4149 52.8601 54.0091 55.041 54.0091 56.8774C54.0091 56.8848 54.0091 56.8923 54.0093 56.8997C54.03 58.034 54.1793 59.0632 54.278 59.7444C54.3124 59.9819 54.3422 60.1878 54.3563 60.3266C54.4008 60.8633 54.4233 61.4138 54.4233 61.9629C54.4233 67.0886 49.8808 73.3563 40.9202 80.5933C38.5547 82.5125 35.5776 83.5682 32.5274 83.5682C32.516 83.5682 32.5045 83.5682 32.4931 83.5682C29.4359 83.5695 26.4465 82.5197 24.0722 80.5933C23.5509 80.1704 22.7851 80.25 22.3621 80.7715C21.939 81.2928 22.0188 82.0585 22.5403 82.4816C25.3375 84.7513 28.8585 85.9998 32.4526 85.9998H32.5335C36.1336 85.9997 39.655 84.7511 42.4502 82.4833C52.0085 74.7635 56.8551 67.8596 56.8551 61.9629C56.8551 61.7366 56.8517 61.5098 56.8449 61.2837C56.9373 61.2871 57.03 61.2888 57.1227 61.2888C61.1863 61.2888 64.4922 57.983 64.4922 53.9194C64.4921 50.078 61.8223 47.1844 57.9772 46.6418ZM61.1815 11.9189C61.8519 11.9189 62.3973 12.4644 62.3973 13.1349C62.3973 13.8054 61.8519 14.3509 61.1815 14.3509C60.511 14.3509 59.9656 13.8054 59.9656 13.1349C59.9656 12.4644 60.5111 11.9189 61.1815 11.9189ZM57.1226 58.8572C56.9491 58.8572 56.7763 58.8481 56.605 58.8303C56.5289 58.2621 56.4547 57.5861 56.4407 56.8665C56.4425 55.2561 56.8275 53.1866 57.2352 50.9959C57.3531 50.3624 57.4743 49.7108 57.5919 49.0438C60.2657 49.4051 62.0604 51.3087 62.0604 53.9194C62.0604 56.6421 59.8454 58.8572 57.1226 58.8572Z" fill="#282D26"/>
<path d="M31.3509 64.6956C31.3509 64.1091 31.8282 63.6318 32.4147 63.6318C33.0012 63.6318 33.4785 64.1089 33.4785 64.6956C33.4785 65.367 34.0229 65.9114 34.6943 65.9114C35.3658 65.9114 35.9102 65.367 35.9102 64.6956C35.9102 62.7683 34.342 61.2002 32.4147 61.2002C30.4874 61.2002 28.9193 62.7681 28.9193 64.6956C28.9193 65.367 29.4636 65.9114 30.1351 65.9114C30.8066 65.9114 31.3509 65.367 31.3509 64.6956Z" fill="#282D26"/>
<path d="M27.2198 56.5817C27.443 56.9783 27.8556 57.2014 28.2805 57.2014C28.4825 57.2014 28.6872 57.151 28.8756 57.045C29.4608 56.7156 29.6682 55.9744 29.3389 55.3892C28.1575 53.29 25.928 51.9858 23.5205 51.9858C21.113 51.9858 18.8835 53.2898 17.702 55.3891C17.3728 55.9743 17.5801 56.7156 18.1652 57.045C18.7502 57.3742 19.4917 57.1669 19.8211 56.5818C20.5725 55.2469 21.99 54.4174 23.5205 54.4174C25.051 54.4174 26.4686 55.2466 27.2198 56.5817Z" fill="#282D26"/>
<path d="M45.008 56.5818C45.3374 57.1669 46.0787 57.3742 46.6639 57.045C47.249 56.7155 47.4565 55.9742 47.127 55.3889C45.9454 53.2895 43.7159 51.9855 41.3086 51.9855C38.9013 51.9855 36.6716 53.2895 35.4902 55.3891C35.1609 55.9743 35.3683 56.7157 35.9535 57.045C36.142 57.151 36.3466 57.2014 36.5486 57.2014C36.9735 57.2014 37.3861 56.9783 37.6093 56.5816C38.3607 55.2466 39.778 54.4172 41.3085 54.4172C42.8389 54.4172 44.2567 55.2468 45.008 56.5818Z" fill="#282D26"/>
<path d="M26 74.9998H38.0001" stroke="#282D26" stroke-width="2" stroke-linecap="round"/>
<path d="M13.0928 5.94946C13.0928 3.18804 15.3314 0.949463 18.0928 0.949463H46.9235C49.6849 0.949463 51.9235 3.18804 51.9235 5.94946V30.3643C51.9235 33.1257 49.6849 35.3643 46.9235 35.3643H28.0895C26.5382 35.3643 25.0748 36.0844 24.1282 37.3134L22.8569 38.9641L21.8113 37.4397C20.9203 36.1407 19.4462 35.3643 17.871 35.3643C15.2321 35.3643 13.0928 33.225 13.0928 30.5861V5.94946Z" fill="white"/>
<path d="M20.5 22V9.5V9H30L32.5 8H44.5L45.5 9.5C45.1667 10 44.4 11.1 44 11.5C43.6 11.9 44.8333 12.3333 45.5 12.5V14.5L46.5 16.5L45.5 18.5L47 20C46.6667 20.6667 45.9 22 45.5 22H43C42.6 22 41.1667 22.3333 40.5 22.5L41 25.5V28.5L40 30H38C37.2 30 37.3333 29 37.5 28.5C37.3333 28 36.7 26.9 35.5 26.5C34 26 32 24.5 31.5 24.5C31.1 24.5 30.6667 22.8333 30.5 22H20.5Z" fill="#8DCDD1"/>
<path d="M46.5849 0H18.4248C15.11 0 12.4131 2.69682 12.4131 6.01172V29.4937C12.4131 32.8086 15.1099 35.5054 18.4248 35.5054H19.0993L21.0083 38.6952C21.393 39.3378 22.0699 39.7214 22.8188 39.7214C23.5678 39.7214 24.2446 39.3376 24.6291 38.695L26.5382 35.5054H29.4276C29.9621 35.5054 30.3952 35.0722 30.3952 34.5378C30.3952 34.0035 29.9621 33.5703 29.4276 33.5703H26.2608C25.7552 33.5703 25.2798 33.8398 25.02 34.2737L22.9686 37.7014C22.9348 37.7578 22.8845 37.7863 22.8187 37.7863C22.7529 37.7863 22.7026 37.7577 22.6688 37.7013L20.6175 34.2736C20.3577 33.8398 19.8823 33.5703 19.3767 33.5703H18.425C18.2972 33.5703 18.1712 33.5635 18.0464 33.5521L27.6831 23.0329H29.8093L30.2718 24.0066C30.7276 24.966 31.5168 25.723 32.4943 26.1383L32.9902 26.3491L36.027 28.1171L36.7951 29.9195C37.1785 30.8183 38.0573 31.3992 39.0389 31.3992C40.2998 31.3992 41.4246 30.6455 41.9042 29.4792C42.0799 29.0518 42.169 28.6008 42.169 28.1387V25.8245C42.169 24.97 41.9889 24.1426 41.6342 23.3655L41.4822 23.0329H44.9071C46.5858 23.0329 47.9514 21.6673 47.9514 19.9886C47.9514 19.2442 47.6858 18.548 47.2213 18.0073C47.4716 17.5728 47.6093 17.0751 47.6093 16.5617C47.6093 15.7772 47.2845 15.0374 46.7449 14.502C46.8847 14.1677 46.9592 13.8058 46.9592 13.4371C46.9592 12.6279 46.5985 11.8788 46.0182 11.366C46.2876 10.9435 46.4422 10.4488 46.4514 9.93284C46.4646 9.19529 46.1842 8.49658 45.6624 7.96545C45.1364 7.43006 44.4039 7.12288 43.6529 7.12288H42.2588L46.9926 1.95566C49.05 2.16065 50.6622 3.90138 50.6622 6.01185V29.4938C50.6622 31.7417 48.8333 33.5704 46.5854 33.5704H33.5512C33.0167 33.5704 32.5836 34.0036 32.5836 34.538C32.5836 35.0723 33.0167 35.5055 33.5512 35.5055H46.5849C49.8998 35.5055 52.5968 32.8087 52.5968 29.4938V6.01172C52.5968 2.69682 49.9 0 46.5849 0ZM43.6525 9.0579C43.8877 9.0579 44.1171 9.15401 44.2816 9.32147C44.4366 9.47937 44.52 9.68424 44.5161 9.8984C44.511 10.1923 44.3469 10.4636 44.0879 10.6064C43.7387 10.7991 43.5217 11.1655 43.5217 11.5664C43.5217 12.0748 43.8816 12.5227 44.377 12.6312C44.7517 12.7135 45.0236 13.0524 45.0236 13.437C45.0236 13.6718 44.9279 13.8885 44.754 14.0471C44.5064 14.273 44.3934 14.6111 44.4554 14.9405C44.5172 15.27 44.7452 15.5439 45.058 15.6645C45.4263 15.8067 45.6737 16.1671 45.6737 16.5616C45.6737 16.8752 45.5268 17.1602 45.2706 17.3438C44.9949 17.5413 44.8428 17.8687 44.8695 18.2067C44.8962 18.5448 45.0979 18.8442 45.4014 18.9959C45.7804 19.1854 46.016 19.5657 46.016 19.9885C46.016 20.6001 45.5185 21.0976 44.9069 21.0976H40.6241C40.1509 21.0976 39.7156 21.3352 39.4599 21.7334C39.2041 22.1315 39.1688 22.6261 39.3654 23.0565L39.8737 24.1693C40.1127 24.6923 40.2337 25.2491 40.2337 25.8243V28.1384C40.2337 28.3469 40.1935 28.5502 40.1143 28.7431C39.9342 29.181 39.5121 29.4637 39.0343 29.4637C38.834 29.4637 38.6539 29.3447 38.5752 29.1604L37.6812 27.0629C37.5994 26.8712 37.4581 26.7109 37.2779 26.6061L33.9112 24.6461C33.8763 24.6258 33.84 24.6077 33.8029 24.5918L33.2511 24.3573C32.7095 24.1271 32.2721 23.7077 32.0197 23.1763L31.2948 21.6501C31.1345 21.3127 30.7943 21.0977 30.4208 21.0977H29.456L40.4857 9.0579H43.6525ZM37.613 9.0579H37.8611L26.8314 21.0977H21.2179C20.6834 21.0977 20.2503 21.5309 20.2503 22.0653C20.2503 22.5997 20.6834 23.0329 21.2179 23.0329H25.0585L16.0846 32.8286C15.0356 32.0903 14.3482 30.8711 14.3482 29.4937V6.01172C14.3482 3.76386 16.177 1.93514 18.4248 1.93514H44.3863L39.6339 7.12275H37.613C37.0785 7.12275 36.6455 7.55597 36.6455 8.09033C36.6455 8.62468 37.0787 9.0579 37.613 9.0579Z" fill="#282D26"/>
<path d="M33.4901 7.12292H32.9374C32.2697 7.12292 31.6129 7.30236 31.0379 7.64163L30.1571 8.1615H21.2186C20.6841 8.1615 20.251 8.59468 20.251 9.129C20.251 9.66332 20.6841 10.0965 21.2186 10.0965H30.4214C30.5944 10.0965 30.7641 10.0502 30.9133 9.96221L32.0217 9.30805C32.2988 9.14435 32.6157 9.05792 32.9376 9.05792H33.4902C34.0247 9.05792 34.4578 8.62474 34.4578 8.09042C34.4578 7.55611 34.0245 7.12292 33.4901 7.12292Z" fill="#282D26"/>
<path d="M33.4668 8.08643H37.7123" stroke="#282D26" stroke-width="1.9"/>
<path d="M21.207 9.05518L21.207 22.1602" stroke="#282D26" stroke-width="1.9"/>
<path d="M39.4912 34.5347L26.3862 34.5347" stroke="#282D26" stroke-width="1.9"/>
</svg>
