<svg width="71" height="71" viewBox="0 0 71 71" fill="none" xmlns="http://www.w3.org/2000/svg">
<g filter="url(#filter0_d)">
<path d="M48.0088 1.55049H22.2317C13.0415 1.55049 5.5672 9.02467 5.5672 18.2148V43.9921C5.5672 53.1819 13.0415 60.6561 22.2317 60.6561H48.0093C57.1991 60.6561 64.6733 53.1819 64.6733 43.9921V18.2148C64.6733 9.02467 57.1991 1.55049 48.0088 1.55049ZM35.1203 45.0215C27.4467 45.0215 21.2018 38.7767 21.2018 31.1033C21.2018 23.4299 27.4467 17.185 35.1203 17.185C42.7938 17.185 49.0387 23.4299 49.0387 31.1033C49.0387 38.7767 42.7938 45.0215 35.1203 45.0215ZM50.8562 17.9093C49.1527 17.9093 47.765 16.5216 47.765 14.8182C47.765 13.1146 49.1529 11.7266 50.8562 11.7266C52.5597 11.7266 53.9478 13.1147 53.9478 14.8182C53.9478 16.5215 52.5599 17.9093 50.8562 17.9093Z" fill="#8DCDD1" stroke="#282D26" stroke-width="2.9"/>
<path d="M28.9059 31.1028C28.9059 27.6775 31.6951 24.8885 35.1204 24.8885C38.5459 24.8885 41.3349 27.6774 41.3349 31.1028C41.3349 34.5279 38.5458 37.3171 35.1204 37.3171C31.6951 37.3171 28.9059 34.5279 28.9059 31.1028Z" fill="#8DCDD1" stroke="#282D26" stroke-width="2.9"/>
</g>
<defs>
<filter id="filter0_d" x="0.117197" y="0.100586" width="70.0061" height="70.0056" filterUnits="userSpaceOnUse" color-interpolation-filters="sRGB">
<feFlood flood-opacity="0" result="BackgroundImageFix"/>
<feColorMatrix in="SourceAlpha" type="matrix" values="0 0 0 0 0 0 0 0 0 0 0 0 0 0 0 0 0 0 127 0"/>
<feOffset dy="4"/>
<feGaussianBlur stdDeviation="2"/>
<feColorMatrix type="matrix" values="0 0 0 0 0 0 0 0 0 0 0 0 0 0 0 0 0 0 0.25 0"/>
<feBlend mode="normal" in2="BackgroundImageFix" result="effect1_dropShadow"/>
<feBlend mode="normal" in="SourceGraphic" in2="effect1_dropShadow" result="shape"/>
</filter>
</defs>
</svg>
