<svg width="63" height="63" viewBox="0 0 63 63" fill="none" xmlns="http://www.w3.org/2000/svg">
<path d="M18.4133 49.9777C18.0598 49.9766 17.7077 50.0239 17.367 50.1183C17.3658 50.1186 17.3647 50.1189 17.3635 50.1192L12.5593 51.4366L13.9931 48.2779C13.9933 48.2773 13.9936 48.2767 13.9939 48.2761C14.2816 47.6457 14.3974 46.9505 14.3297 46.2609C14.2618 45.5706 14.0125 44.9107 13.6069 44.348L13.6047 44.3449C10.8922 40.6021 9.43783 36.0956 9.45096 31.4741L9.45096 31.4717C9.45783 25.6273 11.7828 20.0241 15.9165 15.8903C20.0496 11.757 25.6538 9.43023 31.5006 9.42007C37.3492 9.42748 42.956 11.7531 47.0914 15.8867C51.2269 20.0203 53.5533 25.6245 53.5606 31.47C53.5533 37.3149 51.2268 42.9185 47.0912 47.0512C42.9553 51.1843 37.3479 53.5087 31.4993 53.5143C27.5964 53.5132 23.7637 52.4773 20.3921 50.5125L20.39 50.5113C19.7895 50.1627 19.1076 49.9787 18.4133 49.9777ZM18.4133 49.9777C18.4143 49.9777 18.4153 49.9777 18.4162 49.9777L18.4106 51.4277L18.4122 49.9777C18.4126 49.9777 18.413 49.9777 18.4133 49.9777ZM31.5019 1.55L31.4986 1.55C23.5634 1.55924 15.9558 4.71414 10.3446 10.3228C4.73355 15.9314 1.57702 23.5357 1.56761 31.4676C1.5564 36.9554 3.06762 42.3334 5.92567 47.0066L1.91894 55.8257L1.91887 55.8259C1.60921 56.5077 1.50083 57.2637 1.60657 58.0051C1.71219 58.7457 2.02704 59.4406 2.51402 60.0084C2.8825 60.4397 3.33979 60.7865 3.8546 61.0249C4.37012 61.2637 4.93115 61.3882 5.49925 61.39L5.51034 61.3899C5.8629 61.3883 6.21359 61.3387 6.55273 61.2424L17.9183 58.1292C22.1226 60.2695 26.776 61.388 31.4997 61.3899H31.5019C39.4371 61.3807 47.0447 58.2258 52.6559 52.6171C58.2671 47.0084 61.4236 39.4039 61.4329 31.4717L61.4329 31.4683C61.4236 23.5361 58.2671 15.9316 52.6559 10.3228C47.0447 4.71414 39.4371 1.55924 31.5019 1.55Z" fill="#8DCDD1" stroke="#282D26" stroke-width="2.9" stroke-linecap="round" stroke-linejoin="round"/>
<path d="M34.273 35.3434C34.2274 35.4149 34.186 35.4789 34.1479 35.5365C31.3062 34.3714 28.918 32.3509 27.3251 29.7705C27.5673 29.4945 27.8787 29.1377 28.144 28.7618C28.4764 28.291 28.8262 27.6723 28.952 26.9228C29.0763 26.1818 28.956 25.4641 28.7934 24.8854C28.6288 24.2999 28.3916 23.7572 28.1919 23.3347C28.1499 23.2439 28.1034 23.14 28.0526 23.0266C27.8614 22.6 27.6102 22.0395 27.3197 21.538C26.9472 20.8951 26.3898 20.1216 25.532 19.6439C23.9075 18.7351 21.999 19.3164 20.8558 20.2477C20.848 20.254 20.8403 20.2605 20.8326 20.267C19.9669 21.0028 19.2776 21.9213 18.8171 22.9564C18.359 23.9862 18.1394 25.1044 18.1749 26.2295C18.1823 26.8506 18.2609 27.4689 18.4091 28.0724C18.4122 28.0851 18.4155 28.0978 18.419 28.1104C18.7838 29.4392 19.3425 30.7083 20.0774 31.878C20.5815 32.7097 21.1278 33.5159 21.7142 34.2935C23.6532 36.9111 26.0887 39.133 28.885 40.8375C30.3064 41.7077 31.8238 42.4153 33.4077 42.9467L33.4221 42.9515C33.5534 42.994 33.687 43.0381 33.8228 43.083C35.2872 43.5667 37.0151 44.1375 39.0459 43.76C41.2433 43.355 43.5726 41.9968 44.5639 39.6856C44.9184 38.8996 45.0255 38.0252 44.8696 37.1767C44.8662 37.1582 44.8624 37.1397 44.8583 37.1214C44.6049 35.9915 43.7658 35.2596 43.1407 34.8199C42.6745 34.492 42.1049 34.1848 41.7056 33.9694C41.58 33.9017 41.4712 33.843 41.3878 33.7956C40.8611 33.4867 40.1527 33.0993 39.3739 32.8676C38.5853 32.6329 37.5939 32.519 36.5932 32.9272C35.699 33.2891 35.1161 34.07 34.7761 34.5658C34.6314 34.7768 34.4892 35.0017 34.3689 35.192C34.3351 35.2456 34.303 35.2964 34.273 35.3434Z" fill="#8DCDD1" stroke="#282D26" stroke-width="2.9" stroke-linecap="round" stroke-linejoin="round"/>
</svg>
