<svg width="63" height="53" viewBox="0 0 63 53" fill="none" xmlns="http://www.w3.org/2000/svg">
<path d="M45.8299 50.6691L45.8267 50.6668C43.4139 48.9664 40.0847 46.576 37.3622 44.6132C36.0001 43.6313 34.7886 42.7555 33.9176 42.1251C33.7617 42.0123 33.6168 41.9074 33.4838 41.8111L31.7634 43.4182L27.0041 47.8644C26.1283 48.6826 24.886 48.9943 23.7263 48.6955L23.723 48.6946C22.5314 48.3845 21.656 47.4914 21.2845 46.4083L45.8299 50.6691ZM45.8299 50.6691C46.9787 51.4739 48.4647 51.68 49.7994 51.1802L49.8026 51.179M45.8299 50.6691L49.8026 51.179M16.2701 31.5553C16.1149 31.5068 15.9366 31.4512 15.7375 31.3891C14.9588 31.1464 13.862 30.8054 12.5898 30.4126C10.0442 29.6265 6.80039 28.6338 3.9978 27.8043L3.99631 27.8039C2.59993 27.3889 1.60223 26.1394 1.55183 24.6682L1.55169 24.6642C1.5054 23.194 2.42159 21.8803 3.78951 21.3793L3.78966 21.3793C10.0543 19.0855 20.8523 15.0927 31.3318 11.2163C32.014 10.9639 32.6948 10.7121 33.3729 10.4613C43.1088 6.85985 52.2909 3.4633 56.9489 1.7573L16.2701 31.5553ZM16.2701 31.5553L16.6019 32.5454C16.9534 33.5937 17.4408 35.046 17.9844 36.6622C19.0711 39.8933 20.3839 43.7832 21.2844 46.408L16.2701 31.5553ZM49.8026 51.179C51.132 50.6777 52.1266 49.5462 52.4277 48.1549L52.4281 48.1531M49.8026 51.179L52.4281 48.1531M52.4281 48.1531C53.4612 43.3489 55.2299 34.871 56.9738 26.5093M52.4281 48.1531L56.9738 26.5093M56.9738 26.5093L57.0677 26.0593M56.9738 26.5093L57.0677 26.0593M57.0677 26.0593C58.7802 17.8481 60.4555 9.81523 61.3768 5.53395L57.0677 26.0593ZM24.4217 32.7816C24.1536 33.0209 23.9839 33.3512 23.9455 33.7085L23.8156 34.9171L22.2246 29.7247L24.2707 28.4317L31.5951 23.803C34.6933 21.8451 38.1558 19.657 41.4854 17.5529C38.6933 20.0447 35.8082 22.6195 33.2227 24.927L26.9662 30.5107L25.1008 32.1755L24.5969 32.6253L24.4662 32.7419L24.4329 32.7716L24.4245 32.7791L24.4224 32.781L24.4219 32.7815C24.4218 32.7816 24.4217 32.7816 25.3872 33.8634L24.4217 32.7816ZM61.3768 5.53367C61.6345 4.3405 61.2003 3.11581 60.2751 2.33765C59.353 1.56206 58.0819 1.34159 56.9503 1.75678L61.3768 5.53367Z" fill="#8DCDD1" stroke="black" stroke-width="2.9" stroke-linecap="round" stroke-linejoin="round"/>
</svg>
